<svg width="333" height="236" viewBox="0 0 333 236" fill="none" xmlns="http://www.w3.org/2000/svg">
<g filter="url(#filter0_d_1200_8612)">
<rect x="3" y="2" width="327" height="230" rx="6" fill="white"/>
</g>
<path d="M19.2419 31.8418H21.1436C21.1063 29.9988 19.5349 28.6937 17.2124 28.6937C14.922 28.6937 13.2014 29.9828 13.2068 31.911C13.2068 33.4771 14.32 34.3773 16.1151 34.8407L17.3563 35.1603C18.5335 35.4586 19.3112 35.8262 19.3165 36.6731C19.3112 37.6053 18.4269 38.2285 17.1379 38.2285C15.9021 38.2285 14.9433 37.6745 14.8634 36.5293H12.9191C12.999 38.6973 14.613 39.9171 17.1539 39.9171C19.7693 39.9171 21.2874 38.612 21.2927 36.6891C21.2874 34.7981 19.7267 33.9352 18.086 33.5463L17.0633 33.2907C16.1684 33.0776 15.199 32.6994 15.2096 31.7885C15.2149 30.9682 15.95 30.3663 17.1858 30.3663C18.363 30.3663 19.1407 30.9149 19.2419 31.8418ZM25.2237 39.9171C26.5074 39.9171 27.2745 39.3152 27.626 38.628H27.69V39.752H29.5436V34.2761C29.5436 32.1135 27.7805 31.4636 26.2198 31.4636C24.4993 31.4636 23.1782 32.2306 22.7521 33.7221L24.5525 33.9778C24.7443 33.4185 25.2876 32.9391 26.2304 32.9391C27.1253 32.9391 27.6154 33.3972 27.6154 34.2015V34.2335C27.6154 34.7875 27.0348 34.8141 25.5912 34.9686C24.0039 35.139 22.4858 35.6131 22.4858 37.4561C22.4858 39.0648 23.663 39.9171 25.2237 39.9171ZM25.7244 38.5002C24.9201 38.5002 24.3448 38.1326 24.3448 37.4242C24.3448 36.6838 24.9893 36.3748 25.8522 36.2523C26.3583 36.1831 27.3703 36.0552 27.6207 35.8528V36.8169C27.6207 37.7278 26.8856 38.5002 25.7244 38.5002ZM33.3108 28.8429H31.3826V39.752H33.3108V28.8429ZM38.8159 39.9118C40.7228 39.9118 42.0332 38.9796 42.3741 37.5574L40.5737 37.3549C40.3127 38.0474 39.6735 38.4096 38.8425 38.4096C37.596 38.4096 36.7704 37.5893 36.7544 36.1884H42.454V35.5971C42.454 32.726 40.7281 31.4636 38.7146 31.4636C36.3709 31.4636 34.8421 33.1841 34.8421 35.709C34.8421 38.2765 36.3496 39.9118 38.8159 39.9118ZM36.7597 34.8887C36.8183 33.8446 37.5907 32.9657 38.7413 32.9657C39.8492 32.9657 40.595 33.7754 40.6056 34.8887H36.7597ZM54.0726 33.7328C53.8063 32.3478 52.6983 31.4636 50.7807 31.4636C48.8098 31.4636 47.4675 32.4331 47.4728 33.9458C47.4675 35.139 48.2026 35.9274 49.774 36.2523L51.1696 36.5453C51.9206 36.7104 52.2722 37.014 52.2722 37.4775C52.2722 38.0368 51.665 38.4576 50.7488 38.4576C49.8645 38.4576 49.2892 38.074 49.1241 37.339L47.2438 37.5201C47.4835 39.0222 48.7459 39.9118 50.7541 39.9118C52.7995 39.9118 54.2431 38.8517 54.2484 37.3017C54.2431 36.1351 53.492 35.4213 51.9473 35.0858L50.5517 34.7875C49.7207 34.601 49.3904 34.3134 49.3958 33.8393C49.3904 33.2853 50.003 32.9018 50.8074 32.9018C51.6969 32.9018 52.1657 33.3865 52.3148 33.9245L54.0726 33.7328ZM59.824 31.5701H58.21V29.6099H56.2817V31.5701H55.1205V33.0616H56.2817V37.6106C56.2711 39.15 57.3897 39.9064 58.8386 39.8638C59.3872 39.8478 59.7654 39.7413 59.9732 39.6721L59.6482 38.1646C59.5417 38.1912 59.3233 38.2392 59.0836 38.2392C58.5989 38.2392 58.21 38.0687 58.21 37.291V33.0616H59.824V31.5701ZM63.6911 39.9171C64.9748 39.9171 65.7418 39.3152 66.0934 38.628H66.1573V39.752H68.011V34.2761C68.011 32.1135 66.2479 31.4636 64.6872 31.4636C62.9666 31.4636 61.6456 32.2306 61.2195 33.7221L63.0199 33.9778C63.2117 33.4185 63.755 32.9391 64.6978 32.9391C65.5927 32.9391 66.0828 33.3972 66.0828 34.2015V34.2335C66.0828 34.7875 65.5021 34.8141 64.0586 34.9686C62.4713 35.139 60.9531 35.6131 60.9531 37.4561C60.9531 39.0648 62.1303 39.9171 63.6911 39.9171ZM64.1918 38.5002C63.3874 38.5002 62.8122 38.1326 62.8122 37.4242C62.8122 36.6838 63.4567 36.3748 64.3196 36.2523C64.8257 36.1831 65.8377 36.0552 66.0881 35.8528V36.8169C66.0881 37.7278 65.353 38.5002 64.1918 38.5002ZM73.9355 31.5701H72.3215V29.6099H70.3933V31.5701H69.232V33.0616H70.3933V37.6106C70.3826 39.15 71.5012 39.9064 72.9501 39.8638C73.4987 39.8478 73.8769 39.7413 74.0847 39.6721L73.7597 38.1646C73.6532 38.1912 73.4348 38.2392 73.1951 38.2392C72.7104 38.2392 72.3215 38.0687 72.3215 37.291V33.0616H73.9355V31.5701ZM75.4482 39.752H77.3765V31.5701H75.4482V39.752ZM76.4176 30.4089C77.0302 30.4089 77.5309 29.9402 77.5309 29.3649C77.5309 28.7843 77.0302 28.3155 76.4176 28.3155C75.7997 28.3155 75.299 28.7843 75.299 29.3649C75.299 29.9402 75.7997 30.4089 76.4176 30.4089ZM85.7259 33.7328C85.4596 32.3478 84.3517 31.4636 82.434 31.4636C80.4632 31.4636 79.1208 32.4331 79.1262 33.9458C79.1208 35.139 79.8559 35.9274 81.4273 36.2523L82.8229 36.5453C83.574 36.7104 83.9255 37.014 83.9255 37.4775C83.9255 38.0368 83.3183 38.4576 82.4021 38.4576C81.5178 38.4576 80.9426 38.074 80.7774 37.339L78.8971 37.5201C79.1368 39.0222 80.3992 39.9118 82.4074 39.9118C84.4529 39.9118 85.8964 38.8517 85.9017 37.3017C85.8964 36.1351 85.1453 35.4213 83.6006 35.0858L82.205 34.7875C81.374 34.601 81.0438 34.3134 81.0491 33.8393C81.0438 33.2853 81.6563 32.9018 82.4607 32.9018C83.3502 32.9018 83.819 33.3865 83.9681 33.9245L85.7259 33.7328ZM91.4773 31.5701H89.8633V29.6099H87.9351V31.5701H86.7738V33.0616H87.9351V37.6106C87.9244 39.15 89.043 39.9064 90.4919 39.8638C91.0405 39.8478 91.4187 39.7413 91.6265 39.6721L91.3015 38.1646C91.195 38.1912 90.9766 38.2392 90.7369 38.2392C90.2522 38.2392 89.8633 38.0687 89.8633 37.291V33.0616H91.4773V31.5701ZM92.99 39.752H94.9183V31.5701H92.99V39.752ZM93.9594 30.4089C94.572 30.4089 95.0727 29.9402 95.0727 29.3649C95.0727 28.7843 94.572 28.3155 93.9594 28.3155C93.3416 28.3155 92.8408 28.7843 92.8408 29.3649C92.8408 29.9402 93.3416 30.4089 93.9594 30.4089ZM100.37 39.9118C102.426 39.9118 103.736 38.6919 103.875 36.9554H102.032C101.867 37.8343 101.233 38.3404 100.386 38.3404C99.1822 38.3404 98.4045 37.3336 98.4045 35.661C98.4045 34.0098 99.1981 33.019 100.386 33.019C101.313 33.019 101.883 33.6156 102.032 34.4039H103.875C103.742 32.6301 102.357 31.4636 100.359 31.4636C97.9623 31.4636 96.4496 33.1948 96.4496 35.693C96.4496 38.1699 97.9251 39.9118 100.37 39.9118ZM111.825 33.7328C111.559 32.3478 110.451 31.4636 108.533 31.4636C106.562 31.4636 105.22 32.4331 105.225 33.9458C105.22 35.139 105.955 35.9274 107.526 36.2523L108.922 36.5453C109.673 36.7104 110.025 37.014 110.025 37.4775C110.025 38.0368 109.417 38.4576 108.501 38.4576C107.617 38.4576 107.042 38.074 106.876 37.339L104.996 37.5201C105.236 39.0222 106.498 39.9118 108.506 39.9118C110.552 39.9118 111.995 38.8517 112.001 37.3017C111.995 36.1351 111.244 35.4213 109.7 35.0858L108.304 34.7875C107.473 34.601 107.143 34.3134 107.148 33.8393C107.143 33.2853 107.755 32.9018 108.56 32.9018C109.449 32.9018 109.918 33.3865 110.067 33.9245L111.825 33.7328Z" fill="#1C1C1C"/>
<path d="M305.479 201C307.695 201 308.945 199.622 308.945 197.349C308.945 195.091 307.695 193.727 305.578 193.727H303.234V201H305.479ZM304.115 200.219V194.509H305.521C307.226 194.509 308.092 195.588 308.092 197.349C308.092 199.125 307.226 200.219 305.422 200.219H304.115ZM312.495 201.114C313.603 201.114 314.413 200.56 314.668 199.736L313.859 199.509C313.646 200.077 313.152 200.361 312.495 200.361C311.511 200.361 310.833 199.725 310.794 198.557H314.754V198.202C314.754 196.17 313.546 195.474 312.41 195.474C310.933 195.474 309.952 196.639 309.952 198.315C309.952 199.991 310.918 201.114 312.495 201.114ZM310.794 197.832C310.851 196.984 311.451 196.227 312.41 196.227C313.319 196.227 313.901 196.909 313.901 197.832H310.794ZM318.144 201.114C319.352 201.114 320.147 200.375 320.289 199.409H319.451C319.295 200.006 318.798 200.361 318.144 200.361C317.15 200.361 316.511 199.537 316.511 198.273C316.511 197.037 317.164 196.227 318.144 196.227C318.883 196.227 319.323 196.682 319.451 197.179H320.289C320.147 196.156 319.281 195.474 318.13 195.474C316.653 195.474 315.673 196.639 315.673 198.301C315.673 199.935 316.61 201.114 318.144 201.114Z" fill="#969696"/>
<path d="M284.865 193.727H283.998V199.452H283.927L279.95 193.727H279.098V201H279.978V195.29H280.049L284.012 201H284.865V193.727ZM288.629 201.114C290.106 201.114 291.101 199.991 291.101 198.301C291.101 196.597 290.106 195.474 288.629 195.474C287.152 195.474 286.158 196.597 286.158 198.301C286.158 199.991 287.152 201.114 288.629 201.114ZM288.629 200.361C287.507 200.361 286.996 199.395 286.996 198.301C286.996 197.207 287.507 196.227 288.629 196.227C289.751 196.227 290.263 197.207 290.263 198.301C290.263 199.395 289.751 200.361 288.629 200.361ZM296.545 195.545H295.636L294.13 199.892H294.073L292.568 195.545H291.659L293.676 201H294.528L296.545 195.545Z" fill="#969696"/>
<path d="M67.2812 201H68.1619V197.747H71.3153V196.966H68.1619V194.509H71.642V193.727H67.2812V201ZM74.8232 201.114C75.9312 201.114 76.7408 200.56 76.9965 199.736L76.1869 199.509C75.9738 200.077 75.4802 200.361 74.8232 200.361C73.8396 200.361 73.1613 199.725 73.1222 198.557H77.0817V198.202C77.0817 196.17 75.8744 195.474 74.738 195.474C73.2607 195.474 72.2806 196.639 72.2806 198.315C72.2806 199.991 73.2465 201.114 74.8232 201.114ZM73.1222 197.832C73.179 196.984 73.7792 196.227 74.738 196.227C75.6471 196.227 76.2295 196.909 76.2295 197.832H73.1222ZM78.3702 201H79.1799V200.162H79.2793C79.464 200.46 79.8191 201.114 80.8702 201.114C82.2339 201.114 83.1856 200.02 83.1856 198.287C83.1856 196.568 82.2339 195.474 80.856 195.474C79.7907 195.474 79.464 196.128 79.2793 196.412H79.2083V193.727H78.3702V201ZM79.1941 198.273C79.1941 197.051 79.7339 196.227 80.7566 196.227C81.8219 196.227 82.3475 197.122 82.3475 198.273C82.3475 199.438 81.8077 200.361 80.7566 200.361C79.7481 200.361 79.1941 199.509 79.1941 198.273Z" fill="#969696"/>
<path d="M89.9052 193.727V201H90.7291V195.474H90.8001L93.0728 201H93.8683L96.141 195.474H96.212V201H97.0359V193.727H95.9847L93.5131 199.764H93.4279L90.9563 193.727H89.9052ZM100.193 201.128C101.145 201.128 101.642 200.616 101.812 200.261H101.855V201H102.693V197.406C102.693 195.673 101.372 195.474 100.676 195.474C99.8522 195.474 98.9147 195.759 98.4886 196.753L99.2841 197.037C99.4687 196.639 99.9055 196.213 100.705 196.213C101.475 196.213 101.855 196.621 101.855 197.321V197.349C101.855 197.754 101.443 197.719 100.449 197.847C99.4368 197.978 98.3324 198.202 98.3324 199.452C98.3324 200.517 99.1562 201.128 100.193 201.128ZM100.321 200.375C99.6534 200.375 99.1704 200.077 99.1704 199.494C99.1704 198.855 99.7528 198.656 100.406 198.571C100.761 198.528 101.713 198.429 101.855 198.259V199.026C101.855 199.707 101.315 200.375 100.321 200.375ZM104.123 201H104.961V197.548C104.961 196.81 105.543 196.27 106.339 196.27C106.562 196.27 106.793 196.312 106.85 196.327V195.474C106.754 195.467 106.534 195.46 106.41 195.46C105.756 195.46 105.188 195.83 104.989 196.369H104.932V195.545H104.123V201Z" fill="#969696"/>
<path d="M114.543 201L115.275 198.94H118.215L118.947 201H119.87L117.2 193.727H116.29L113.62 201H114.543ZM115.552 198.159L116.717 194.878H116.773L117.938 198.159H115.552ZM120.789 203.045H121.627V200.162H121.698C121.883 200.46 122.238 201.114 123.289 201.114C124.653 201.114 125.605 200.02 125.605 198.287C125.605 196.568 124.653 195.474 123.275 195.474C122.21 195.474 121.883 196.128 121.698 196.412H121.599V195.545H120.789V203.045ZM121.613 198.273C121.613 197.051 122.153 196.227 123.176 196.227C124.241 196.227 124.766 197.122 124.766 198.273C124.766 199.438 124.227 200.361 123.176 200.361C122.167 200.361 121.613 199.509 121.613 198.273ZM126.783 201H127.621V197.548C127.621 196.81 128.203 196.27 128.999 196.27C129.223 196.27 129.453 196.312 129.51 196.327V195.474C129.414 195.467 129.194 195.46 129.07 195.46C128.416 195.46 127.848 195.83 127.649 196.369H127.593V195.545H126.783V201Z" fill="#969696"/>
<path d="M138.075 193.727V201H138.899V195.474H138.97L141.243 201H142.038L144.311 195.474H144.382V201H145.206V193.727H144.155L141.683 199.764H141.598L139.126 193.727H138.075ZM148.363 201.128C149.315 201.128 149.812 200.616 149.982 200.261H150.025V201H150.863V197.406C150.863 195.673 149.542 195.474 148.846 195.474C148.022 195.474 147.085 195.759 146.659 196.753L147.454 197.037C147.639 196.639 148.075 196.213 148.874 196.213C149.645 196.213 150.025 196.621 150.025 197.321V197.349C150.025 197.754 149.613 197.719 148.619 197.847C147.607 197.978 146.502 198.202 146.502 199.452C146.502 200.517 147.326 201.128 148.363 201.128ZM148.491 200.375C147.823 200.375 147.34 200.077 147.34 199.494C147.34 198.855 147.923 198.656 148.576 198.571C148.931 198.528 149.883 198.429 150.025 198.259V199.026C150.025 199.707 149.485 200.375 148.491 200.375ZM152.637 203.045C153.394 203.045 153.926 202.644 154.242 201.795L156.565 195.56L155.649 195.545L154.143 199.892H154.086L152.58 195.545H151.671L153.688 201.028L153.532 201.455C153.227 202.286 152.85 202.364 152.239 202.207L152.026 202.946C152.112 202.989 152.353 203.045 152.637 203.045Z" fill="#969696"/>
<path d="M165.77 193.727V198.926C165.77 199.832 165.337 200.318 164.577 200.318C163.885 200.318 163.384 199.913 163.384 199.295H162.517C162.517 200.414 163.384 201.099 164.577 201.099C165.841 201.099 166.651 200.322 166.651 198.926V193.727H165.77ZM171.64 198.77C171.64 199.793 170.859 200.261 170.234 200.261C169.538 200.261 169.04 199.75 169.04 198.955V195.545H168.202V199.011C168.202 200.403 168.941 201.071 169.964 201.071C170.788 201.071 171.327 200.631 171.583 200.077H171.64V201H172.478V195.545H171.64V198.77ZM174.751 197.719C174.751 196.767 175.34 196.227 176.143 196.227C176.921 196.227 177.393 196.735 177.393 197.591V201H178.231V197.534C178.231 196.142 177.489 195.474 176.384 195.474C175.561 195.474 175.049 195.844 174.794 196.398H174.723V195.545H173.913V201H174.751V197.719Z" fill="#969696"/>
<path d="M191.009 193.727V198.926C191.009 199.832 190.575 200.318 189.815 200.318C189.123 200.318 188.622 199.913 188.622 199.295H187.756C187.756 200.414 188.622 201.099 189.815 201.099C191.08 201.099 191.889 200.322 191.889 198.926V193.727H191.009ZM196.878 198.77C196.878 199.793 196.097 200.261 195.472 200.261C194.776 200.261 194.279 199.75 194.279 198.955V195.545H193.441V199.011C193.441 200.403 194.179 201.071 195.202 201.071C196.026 201.071 196.566 200.631 196.821 200.077H196.878V201H197.716V195.545H196.878V198.77ZM199.989 193.727H199.151V201H199.989V193.727Z" fill="#969696"/>
<path d="M208.498 201L209.23 198.94H212.17L212.902 201H213.825L211.155 193.727H210.246L207.575 201H208.498ZM209.507 198.159L210.672 194.878H210.729L211.893 198.159H209.507ZM218.182 198.77C218.182 199.793 217.401 200.261 216.776 200.261C216.08 200.261 215.582 199.75 215.582 198.955V195.545H214.744V199.011C214.744 200.403 215.483 201.071 216.506 201.071C217.33 201.071 217.869 200.631 218.125 200.077H218.182V201H219.02V195.545H218.182V198.77ZM222.657 203.159C223.963 203.159 225.014 202.562 225.014 201.156V195.545H224.205V196.412H224.12C223.935 196.128 223.594 195.474 222.529 195.474C221.151 195.474 220.199 196.568 220.199 198.244C220.199 199.949 221.193 200.915 222.514 200.915C223.58 200.915 223.921 200.29 224.105 199.991H224.176V201.099C224.176 202.009 223.537 202.42 222.657 202.42C221.666 202.42 221.318 201.898 221.094 201.597L220.426 202.065C220.767 202.637 221.439 203.159 222.657 203.159ZM222.628 200.162C221.577 200.162 221.037 199.366 221.037 198.23C221.037 197.122 221.563 196.227 222.628 196.227C223.651 196.227 224.191 197.051 224.191 198.23C224.191 199.438 223.637 200.162 222.628 200.162Z" fill="#969696"/>
<path d="M236.863 195.545H237.715C237.676 194.448 236.664 193.628 235.258 193.628C233.866 193.628 232.772 194.438 232.772 195.659C232.772 196.639 233.482 197.222 234.619 197.548L235.514 197.804C236.281 198.017 236.962 198.287 236.962 199.011C236.962 199.807 236.195 200.332 235.187 200.332C234.32 200.332 233.553 199.949 233.482 199.125H232.573C232.658 200.318 233.624 201.128 235.187 201.128C236.863 201.128 237.815 200.205 237.815 199.026C237.815 197.662 236.522 197.222 235.769 197.023L235.031 196.824C234.491 196.682 233.624 196.398 233.624 195.616C233.624 194.92 234.264 194.409 235.229 194.409C236.11 194.409 236.778 194.828 236.863 195.545ZM241.336 201.114C242.444 201.114 243.254 200.56 243.509 199.736L242.7 199.509C242.486 200.077 241.993 200.361 241.336 200.361C240.352 200.361 239.674 199.725 239.635 198.557H243.594V198.202C243.594 196.17 242.387 195.474 241.251 195.474C239.773 195.474 238.793 196.639 238.793 198.315C238.793 199.991 239.759 201.114 241.336 201.114ZM239.635 197.832C239.692 196.984 240.292 196.227 241.251 196.227C242.16 196.227 242.742 196.909 242.742 197.832H239.635ZM244.769 203.045H245.607V200.162H245.678C245.863 200.46 246.218 201.114 247.269 201.114C248.633 201.114 249.585 200.02 249.585 198.287C249.585 196.568 248.633 195.474 247.255 195.474C246.19 195.474 245.863 196.128 245.678 196.412H245.579V195.545H244.769V203.045ZM245.593 198.273C245.593 197.051 246.133 196.227 247.156 196.227C248.221 196.227 248.747 197.122 248.747 198.273C248.747 199.438 248.207 200.361 247.156 200.361C246.147 200.361 245.593 199.509 245.593 198.273Z" fill="#969696"/>
<path d="M262.25 197.364C262.25 195.062 260.9 193.628 259.039 193.628C257.179 193.628 255.829 195.062 255.829 197.364C255.829 199.665 257.179 201.099 259.039 201.099C260.9 201.099 262.25 199.665 262.25 197.364ZM261.397 197.364C261.397 199.253 260.36 200.276 259.039 200.276C257.718 200.276 256.681 199.253 256.681 197.364C256.681 195.474 257.718 194.452 259.039 194.452C260.36 194.452 261.397 195.474 261.397 197.364ZM265.733 201.114C266.94 201.114 267.736 200.375 267.878 199.409H267.039C266.883 200.006 266.386 200.361 265.733 200.361C264.738 200.361 264.099 199.537 264.099 198.273C264.099 197.037 264.753 196.227 265.733 196.227C266.471 196.227 266.912 196.682 267.039 197.179H267.878C267.736 196.156 266.869 195.474 265.718 195.474C264.241 195.474 263.261 196.639 263.261 198.301C263.261 199.935 264.199 201.114 265.733 201.114ZM271.375 195.545H270.21V194.239H269.372V195.545H268.548V196.256H269.372V199.665C269.372 200.616 270.139 201.071 270.849 201.071C271.162 201.071 271.361 201.014 271.474 200.972L271.304 200.219C271.233 200.233 271.119 200.261 270.935 200.261C270.565 200.261 270.21 200.148 270.21 199.438V196.256H271.375V195.545Z" fill="#969696"/>
<path d="M47.8582 193.727V198.926C47.8582 199.832 47.425 200.318 46.665 200.318C45.9726 200.318 45.4719 199.913 45.4719 199.295H44.6054C44.6054 200.414 45.4719 201.099 46.665 201.099C47.9293 201.099 48.7389 200.322 48.7389 198.926V193.727H47.8582ZM51.8953 201.128C52.847 201.128 53.3442 200.616 53.5146 200.261H53.5572V201H54.3953V197.406C54.3953 195.673 53.0743 195.474 52.3783 195.474C51.5544 195.474 50.6169 195.759 50.1908 196.753L50.9862 197.037C51.1709 196.639 51.6077 196.213 52.4067 196.213C53.1773 196.213 53.5572 196.621 53.5572 197.321V197.349C53.5572 197.754 53.1453 197.719 52.151 197.847C51.1389 197.978 50.0345 198.202 50.0345 199.452C50.0345 200.517 50.8584 201.128 51.8953 201.128ZM52.0231 200.375C51.3555 200.375 50.8726 200.077 50.8726 199.494C50.8726 198.855 51.455 198.656 52.1084 198.571C52.4635 198.528 53.4152 198.429 53.5572 198.259V199.026C53.5572 199.707 53.0175 200.375 52.0231 200.375ZM56.663 197.719C56.663 196.767 57.2525 196.227 58.0551 196.227C58.8328 196.227 59.3051 196.735 59.3051 197.591V201H60.1431V197.534C60.1431 196.142 59.4009 195.474 58.2965 195.474C57.4727 195.474 56.9613 195.844 56.7056 196.398H56.6346V195.545H55.825V201H56.663V197.719Z" fill="#969696"/>
<line x1="49.4473" y1="83.8423" x2="317.991" y2="83.8423" stroke="#E0E6ED" stroke-dasharray="2 2"/>
<line x1="49.4473" y1="118.731" x2="314.603" y2="118.731" stroke="#E0E6ED" stroke-dasharray="2 2"/>
<line x1="49.4473" y1="153.62" x2="314.603" y2="153.62" stroke="#E0E6ED" stroke-dasharray="2 2"/>
<path d="M18.055 88.9496H18.6373V88.1577C20.1288 88.0547 20.9669 87.1741 20.9669 86.0661C20.9669 84.7025 19.6743 84.2621 18.9214 84.0633L18.6373 83.9851V81.4603C19.3902 81.5348 19.9371 81.9397 20.0152 82.586H20.8675C20.8319 81.549 19.9229 80.7607 18.6373 80.6755V79.8587H18.055V80.6861C16.8369 80.8104 15.9243 81.5846 15.9243 82.6996C15.9243 83.6797 16.6345 84.2621 17.7709 84.5888L18.055 84.6705V87.3587C17.3092 87.2806 16.6984 86.8971 16.6345 86.1655H15.7254C15.8071 87.2841 16.6594 88.0654 18.055 88.1577V88.9496ZM18.6373 87.3587V84.8374L18.6657 84.8445C19.4328 85.0576 20.1146 85.3275 20.1146 86.0519C20.1146 86.7657 19.4967 87.2628 18.6373 87.3587ZM18.055 83.8289C17.5152 83.6762 16.7765 83.3779 16.7765 82.657C16.7765 82.0427 17.2737 81.5739 18.055 81.4709V83.8289ZM24.7438 80.7678H23.8632L22.045 81.9752V82.8701L23.8205 81.6911H23.8632V88.0405H24.7438V80.7678ZM26.7355 88.0405H31.3235V87.2593H27.9428V87.2025L29.5764 85.4553C30.8264 84.1165 31.1957 83.4915 31.1957 82.6854C31.1957 81.5633 30.2866 80.6684 29.0082 80.6684C27.7333 80.6684 26.7639 81.5348 26.7639 82.8133H27.6019C27.6019 81.9858 28.1382 81.4354 28.9798 81.4354C29.7681 81.4354 30.3718 81.9184 30.3718 82.6854C30.3718 83.3566 29.9776 83.8537 29.136 84.7735L26.7355 87.4013V88.0405ZM35.0623 88.14C36.6674 88.14 37.5907 86.7799 37.5907 84.4042C37.5907 82.0462 36.6532 80.6684 35.0623 80.6684C33.4714 80.6684 32.5339 82.0462 32.5339 84.4042C32.5339 86.7799 33.4572 88.14 35.0623 88.14ZM35.0623 87.3587C34.0041 87.3587 33.3862 86.2969 33.3862 84.4042C33.3862 82.515 34.0112 81.4354 35.0623 81.4354C36.1134 81.4354 36.7384 82.515 36.7384 84.4042C36.7384 86.2969 36.1205 87.3587 35.0623 87.3587ZM41.2123 88.14C42.8174 88.14 43.7407 86.7799 43.7407 84.4042C43.7407 82.0462 42.8032 80.6684 41.2123 80.6684C39.6214 80.6684 38.6839 82.0462 38.6839 84.4042C38.6839 86.7799 39.6072 88.14 41.2123 88.14ZM41.2123 87.3587C40.1541 87.3587 39.5362 86.2969 39.5362 84.4042C39.5362 82.515 40.1612 81.4354 41.2123 81.4354C42.2634 81.4354 42.8884 82.515 42.8884 84.4042C42.8884 86.2969 42.2705 87.3587 41.2123 87.3587Z" fill="#969696"/>
<path d="M23.17 124.091H23.7524V123.299C25.2439 123.196 26.082 122.315 26.082 121.207C26.082 119.844 24.7894 119.403 24.0365 119.204L23.7524 119.126V116.601C24.5053 116.676 25.0521 117.081 25.1303 117.727H25.9825C25.947 116.69 25.0379 115.902 23.7524 115.817V115H23.17V115.827C21.952 115.952 21.0394 116.726 21.0394 117.841C21.0394 118.821 21.7496 119.403 22.886 119.73L23.17 119.812V122.5C22.4243 122.422 21.8135 122.038 21.7496 121.307H20.8405C20.9222 122.425 21.7744 123.206 23.17 123.299V124.091ZM23.7524 122.5V119.979L23.7808 119.986C24.5479 120.199 25.2297 120.469 25.2297 121.193C25.2297 121.907 24.6118 122.404 23.7524 122.5ZM23.17 118.97C22.6303 118.817 21.8916 118.519 21.8916 117.798C21.8916 117.184 22.3888 116.715 23.17 116.612V118.97ZM29.6174 115.809C28.1402 115.792 27.1885 116.903 27.1885 118.238C27.1885 119.645 28.2254 120.653 29.4754 120.653C30.2282 120.653 30.8674 120.284 31.2652 119.687H31.322C31.322 121.477 30.626 122.5 29.5038 122.5C28.7368 122.5 28.268 122.017 28.1118 121.349H27.2453C27.4157 122.5 28.2822 123.281 29.5038 123.281C31.1373 123.281 32.1459 121.832 32.1459 119.247C32.1459 116.577 30.8106 115.824 29.6174 115.809ZM29.6174 116.591C30.5265 116.591 31.1942 117.372 31.1942 118.224C31.1942 119.091 30.4839 119.872 29.589 119.872C28.6942 119.872 28.0407 119.148 28.0407 118.238C28.0407 117.329 28.7226 116.591 29.6174 116.591ZM35.8145 123.281C37.4196 123.281 38.3429 121.921 38.3429 119.545C38.3429 117.187 37.4054 115.809 35.8145 115.809C34.2236 115.809 33.2861 117.187 33.2861 119.545C33.2861 121.921 34.2094 123.281 35.8145 123.281ZM35.8145 122.5C34.7563 122.5 34.1384 121.438 34.1384 119.545C34.1384 117.656 34.7634 116.577 35.8145 116.577C36.8656 116.577 37.4906 117.656 37.4906 119.545C37.4906 121.438 36.8727 122.5 35.8145 122.5ZM41.9645 123.281C43.5696 123.281 44.4929 121.921 44.4929 119.545C44.4929 117.187 43.5554 115.809 41.9645 115.809C40.3736 115.809 39.4361 117.187 39.4361 119.545C39.4361 121.921 40.3594 123.281 41.9645 123.281ZM41.9645 122.5C40.9063 122.5 40.2884 121.438 40.2884 119.545C40.2884 117.656 40.9134 116.577 41.9645 116.577C43.0156 116.577 43.6406 117.656 43.6406 119.545C43.6406 121.438 43.0227 122.5 41.9645 122.5Z" fill="#969696"/>
<path d="M23.2714 159.454H23.8537V158.662C25.3452 158.559 26.1833 157.678 26.1833 156.57C26.1833 155.206 24.8907 154.766 24.1378 154.567L23.8537 154.489V151.964C24.6066 152.039 25.1535 152.444 25.2316 153.09H26.0839C26.0483 152.053 25.1393 151.265 23.8537 151.179V150.363H23.2714V151.19C22.0533 151.314 21.1407 152.088 21.1407 153.204C21.1407 154.184 21.8509 154.766 22.9873 155.093L23.2714 155.174V157.863C22.5256 157.784 21.9148 157.401 21.8509 156.669H20.9418C21.0235 157.788 21.8758 158.569 23.2714 158.662V159.454ZM23.8537 157.863V155.341L23.8822 155.348C24.6492 155.561 25.331 155.831 25.331 156.556C25.331 157.27 24.7131 157.767 23.8537 157.863ZM23.2714 154.333C22.7316 154.18 21.993 153.882 21.993 153.161C21.993 152.547 22.4901 152.078 23.2714 151.975V154.333ZM27.6307 158.544H28.554L31.7926 152.096V151.272H27.1335V152.053H30.8835V152.11L27.6307 158.544ZM35.2322 158.644C36.8373 158.644 37.7606 157.284 37.7606 154.908C37.7606 152.55 36.8231 151.172 35.2322 151.172C33.6413 151.172 32.7038 152.55 32.7038 154.908C32.7038 157.284 33.6271 158.644 35.2322 158.644ZM35.2322 157.863C34.174 157.863 33.5561 156.801 33.5561 154.908C33.5561 153.019 34.1811 151.939 35.2322 151.939C36.2834 151.939 36.9084 153.019 36.9084 154.908C36.9084 156.801 36.2905 157.863 35.2322 157.863ZM41.3822 158.644C42.9873 158.644 43.9106 157.284 43.9106 154.908C43.9106 152.55 42.9731 151.172 41.3822 151.172C39.7913 151.172 38.8538 152.55 38.8538 154.908C38.8538 157.284 39.7771 158.644 41.3822 158.644ZM41.3822 157.863C40.324 157.863 39.7061 156.801 39.7061 154.908C39.7061 153.019 40.3311 151.939 41.3822 151.939C42.4334 151.939 43.0584 153.019 43.0584 154.908C43.0584 156.801 42.4405 157.863 41.3822 157.863Z" fill="#969696"/>
<rect x="72.6331" y="117.27" width="4.29699" height="67.1547" rx="2.1485" fill="#2C7BE5"/>
<rect x="95.8369" y="86.6948" width="4.29699" height="97.7292" rx="2.1485" fill="#2C7BE5"/>
<rect x="119.47" y="113.397" width="4.29699" height="71.0269" rx="2.1485" fill="#2C7BE5"/>
<rect x="142.674" y="129.281" width="4.29699" height="55.1433" rx="2.1485" fill="#2C7BE5"/>
<rect x="166.308" y="153.304" width="4.29699" height="31.1205" rx="2.1485" fill="#2C7BE5"/>
<rect x="189.942" y="127.673" width="4.29699" height="56.7519" rx="2.1485" fill="#2C7BE5"/>
<rect x="213.146" y="95.9766" width="4.29699" height="88.4477" rx="2.1485" fill="#2C7BE5"/>
<rect x="236.778" y="90.5674" width="4.29699" height="93.857" rx="2.1485" fill="#2C7BE5"/>
<rect x="259.981" y="101.982" width="4.29699" height="82.4419" rx="2.1485" fill="#2C7BE5"/>
<rect x="283.615" y="119.454" width="4.29699" height="64.9708" rx="2.1485" fill="#2C7BE5"/>
<rect x="307.249" y="80.6895" width="4.29699" height="103.735" rx="2.1485" fill="#2C7BE5"/>
<rect x="49" y="101.982" width="4.29699" height="82.4419" rx="2.1485" fill="#2C7BE5"/>
<rect x="79.0789" y="138.35" width="4.29699" height="46.0747" rx="2.1485" fill="#D2DDEC"/>
<rect x="102.283" y="117.373" width="4.29699" height="67.0518" rx="2.1485" fill="#D2DDEC"/>
<rect x="125.917" y="135.693" width="4.29699" height="48.7314" rx="2.1485" fill="#D2DDEC"/>
<rect x="149.12" y="146.591" width="4.29699" height="37.8337" rx="2.1485" fill="#D2DDEC"/>
<rect x="172.753" y="163.072" width="4.29699" height="21.3517" rx="2.1485" fill="#D2DDEC"/>
<rect x="196.387" y="145.487" width="4.29699" height="38.9373" rx="2.1485" fill="#D2DDEC"/>
<rect x="219.591" y="123.741" width="4.29699" height="60.6837" rx="2.1485" fill="#D2DDEC"/>
<rect x="243.224" y="120.029" width="4.29699" height="64.395" rx="2.1485" fill="#D2DDEC"/>
<rect x="266.427" y="127.861" width="4.29699" height="56.5632" rx="2.1485" fill="#D2DDEC"/>
<rect x="290.061" y="139.848" width="4.29699" height="44.5763" rx="2.1485" fill="#D2DDEC"/>
<rect x="313.694" y="113.252" width="4.29699" height="71.1723" rx="2.1485" fill="#D2DDEC"/>
<rect x="55.4451" y="127.861" width="4.29699" height="56.5632" rx="2.1485" fill="#D2DDEC"/>
<defs>
<filter id="filter0_d_1200_8612" x="0" y="0" width="333" height="236" filterUnits="userSpaceOnUse" color-interpolation-filters="sRGB">
<feFlood flood-opacity="0" result="BackgroundImageFix"/>
<feColorMatrix in="SourceAlpha" type="matrix" values="0 0 0 0 0 0 0 0 0 0 0 0 0 0 0 0 0 0 127 0" result="hardAlpha"/>
<feOffset dy="1"/>
<feGaussianBlur stdDeviation="1.5"/>
<feColorMatrix type="matrix" values="0 0 0 0 0.895069 0 0 0 0 0.895069 0 0 0 0 0.895069 0 0 0 0.3 0"/>
<feBlend mode="normal" in2="BackgroundImageFix" result="effect1_dropShadow_1200_8612"/>
<feBlend mode="normal" in="SourceGraphic" in2="effect1_dropShadow_1200_8612" result="shape"/>
</filter>
</defs>
</svg>
