<svg width="36" height="36" viewBox="0 0 36 36" fill="none" xmlns="http://www.w3.org/2000/svg">
<g clip-path="url(#clip0_202_1058)">
<path d="M33 13.5H25.815L19.23 3.64495C18.63 2.75995 17.325 2.75995 16.74 3.64495L10.155 13.5H3C2.175 13.5 1.5 14.1749 1.5 14.9999C1.5 15.1349 1.515 15.27 1.56 15.405L5.37 29.31C5.715 30.57 6.87 31.5 8.25 31.5H27.75C29.13 31.5 30.285 30.57 30.645 29.31L34.455 15.405L34.5 14.9999C34.5 14.1749 33.825 13.5 33 13.5ZM17.985 7.18495L22.2 13.5H13.77L17.985 7.18495ZM18 25.4999C16.35 25.4999 15 24.15 15 22.4999C15 20.8499 16.35 19.5 18 19.5C19.65 19.5 21 20.8499 21 22.4999C21 24.15 19.65 25.4999 18 25.4999Z" fill="#3167EB"/>
</g>
<defs>
<clipPath id="clip0_202_1058">
<rect width="36" height="36" fill="white"/>
</clipPath>
</defs>
</svg>
