<svg width="36" height="36" viewBox="0 0 36 36" fill="none" xmlns="http://www.w3.org/2000/svg">
<g clip-path="url(#clip0_202_1050)">
<path d="M10.5 27C8.85 27 7.515 28.35 7.515 30C7.515 31.65 8.85 33 10.5 33C12.15 33 13.5 31.65 13.5 30C13.5 28.35 12.15 27 10.5 27ZM1.5 4.5C1.5 5.325 2.175 6 3 6H4.5L9.9 17.385L7.875 21.045C6.78 23.055 8.22 25.5 10.5 25.5H27C27.825 25.5 28.5 24.825 28.5 24C28.5 23.175 27.825 22.5 27 22.5H10.5L12.15 19.5H23.325C24.45 19.5 25.44 18.885 25.95 17.955L31.32 8.22C31.875 7.23 31.155 6 30.015 6H7.815L6.81 3.855C6.57 3.33 6.03 3 5.46 3H3C2.175 3 1.5 3.675 1.5 4.5ZM25.5 27C23.85 27 22.515 28.35 22.515 30C22.515 31.65 23.85 33 25.5 33C27.15 33 28.5 31.65 28.5 30C28.5 28.35 27.15 27 25.5 27Z" fill="#00B594"/>
</g>
<defs>
<clipPath id="clip0_202_1050">
<rect width="36" height="36" fill="white"/>
</clipPath>
</defs>
</svg>
