<svg width="64" height="64" viewBox="0 0 64 64" fill="none" xmlns="http://www.w3.org/2000/svg">
<path d="M2 58H8.95C9.58393 59.2789 10.5132 60.3886 11.6611 61.2372C12.8089 62.0858 14.1422 62.6489 15.5508 62.88C16.9594 63.1111 18.4028 63.0035 19.7616 62.5662C21.1204 62.1288 22.3556 61.3743 23.3649 60.3649C24.3743 59.3556 25.1288 58.1204 25.5662 56.7616C26.0035 55.4028 26.1111 53.9594 25.88 52.5508C25.6489 51.1422 25.0858 49.8089 24.2372 48.6611C23.3886 47.5132 22.2789 46.5839 21 45.95V45C20.9984 43.4092 20.3658 41.884 19.2409 40.7591C18.116 39.6342 16.5908 39.0016 15 39H14.152C15.1112 38.3298 15.8317 37.3711 16.2087 36.2634C16.5857 35.1556 16.5996 33.9564 16.2483 32.8402C15.897 31.724 15.1989 30.749 14.2554 30.0568C13.3119 29.3646 12.1722 28.9914 11.002 28.9914C9.83183 28.9914 8.69215 29.3646 7.74865 30.0568C6.80515 30.749 6.107 31.724 5.7557 32.8402C5.4044 33.9564 5.41826 35.1556 5.79526 36.2634C6.17226 37.3711 6.89275 38.3298 7.852 39H7C5.40919 39.0016 3.88399 39.6342 2.75911 40.7591C1.63424 41.884 1.00159 43.4092 1 45V57C1 57.2652 1.10536 57.5196 1.29289 57.7071C1.48043 57.8946 1.73478 58 2 58ZM24 54C24 55.3845 23.5895 56.7378 22.8203 57.889C22.0511 59.0401 20.9579 59.9373 19.6788 60.4672C18.3997 60.997 16.9922 61.1356 15.6344 60.8655C14.2765 60.5954 13.0292 59.9287 12.0503 58.9497C11.0713 57.9708 10.4046 56.7235 10.1345 55.3656C9.86441 54.0078 10.003 52.6003 10.5328 51.3212C11.0627 50.0421 11.9599 48.9489 13.111 48.1797C14.2622 47.4105 15.6155 47 17 47C18.8559 47.0021 20.6351 47.7403 21.9474 49.0526C23.2597 50.3649 23.9979 52.1441 24 54ZM7.5 34.5C7.5 33.8078 7.70527 33.1311 8.08986 32.5555C8.47444 31.9799 9.02107 31.5313 9.66061 31.2664C10.3001 31.0015 11.0039 30.9322 11.6828 31.0672C12.3617 31.2023 12.9854 31.5356 13.4749 32.0251C13.9644 32.5146 14.2977 33.1382 14.4327 33.8172C14.5678 34.4961 14.4985 35.1998 14.2336 35.8394C13.9687 36.4789 13.5201 37.0256 12.9445 37.4101C12.3689 37.7947 11.6922 38 11 38C10.0717 38 9.1815 37.6312 8.52513 36.9749C7.86875 36.3185 7.5 35.4283 7.5 34.5ZM3 45C3 43.9391 3.42143 42.9217 4.17157 42.1716C4.92172 41.4214 5.93913 41 7 41H15C16.0609 41 17.0783 41.4214 17.8284 42.1716C18.5786 42.9217 19 43.9391 19 45V45.232C17.5159 44.8879 15.9686 44.9272 14.5039 45.3465C13.0393 45.7657 11.7055 46.5509 10.6282 47.6282C9.55094 48.7055 8.76569 50.0393 8.34647 51.5039C7.92725 52.9686 7.88786 54.5159 8.232 56H3V45ZM58 24.95V24C57.9984 22.4092 57.3658 20.884 56.2409 19.7591C55.116 18.6342 53.5908 18.0016 52 18H51.152C52.1112 17.3298 52.8317 16.3711 53.2087 15.2634C53.5857 14.1556 53.5996 12.9564 53.2483 11.8402C52.897 10.724 52.1989 9.74897 51.2554 9.05679C50.3119 8.36461 49.1722 7.99139 48.002 7.99139C46.8318 7.99139 45.6922 8.36461 44.7486 9.05679C43.8051 9.74897 43.107 10.724 42.7557 11.8402C42.4044 12.9564 42.4183 14.1556 42.7953 15.2634C43.1723 16.3711 43.8928 17.3298 44.852 18H44C42.4092 18.0016 40.884 18.6342 39.7591 19.7591C38.6342 20.884 38.0016 22.4092 38 24V36C38 36.2652 38.1054 36.5196 38.2929 36.7071C38.4804 36.8946 38.7348 37 39 37H45.95C46.5839 38.2789 47.5132 39.3886 48.6611 40.2372C49.8089 41.0858 51.1422 41.6489 52.5508 41.88C53.9594 42.1111 55.4028 42.0035 56.7616 41.5662C58.1204 41.1288 59.3556 40.3743 60.3649 39.3649C61.3743 38.3556 62.1288 37.1204 62.5662 35.7616C63.0035 34.4028 63.1111 32.9594 62.88 31.5508C62.6489 30.1422 62.0858 28.8089 61.2372 27.6611C60.3886 26.5132 59.2789 25.5839 58 24.95ZM44.5 13.5C44.5 12.8078 44.7053 12.1311 45.0899 11.5555C45.4744 10.9799 46.0211 10.5313 46.6606 10.2664C47.3001 10.0015 48.0039 9.9322 48.6828 10.0672C49.3617 10.2023 49.9854 10.5356 50.4749 11.0251C50.9644 11.5146 51.2977 12.1382 51.4327 12.8172C51.5678 13.4961 51.4985 14.1998 51.2336 14.8394C50.9687 15.4789 50.5201 16.0256 49.9445 16.4101C49.3689 16.7947 48.6922 17 48 17C47.0717 17 46.1815 16.6312 45.5251 15.9749C44.8688 15.3185 44.5 14.4283 44.5 13.5ZM45.232 35H40V24C40 22.9391 40.4214 21.9217 41.1716 21.1716C41.9217 20.4214 42.9391 20 44 20H52C53.0609 20 54.0783 20.4214 54.8284 21.1716C55.5786 21.9217 56 22.9391 56 24V24.232C54.5159 23.8879 52.9686 23.9272 51.5039 24.3465C50.0393 24.7657 48.7055 25.5509 47.6282 26.6282C46.5509 27.7055 45.7657 29.0393 45.3465 30.5039C44.9273 31.9686 44.8879 33.5159 45.232 35ZM54 40C52.6155 40 51.2622 39.5895 50.111 38.8203C48.9599 38.0511 48.0627 36.9579 47.5328 35.6788C47.003 34.3997 46.8644 32.9922 47.1345 31.6344C47.4046 30.2765 48.0713 29.0292 49.0503 28.0503C50.0292 27.0713 51.2765 26.4046 52.6344 26.1345C53.9922 25.8644 55.3997 26.003 56.6788 26.5328C57.9579 27.0627 59.0511 27.9599 59.8203 29.111C60.5895 30.2621 61 31.6155 61 33C60.9979 34.8559 60.2597 36.6351 58.9474 37.9474C57.6351 39.2597 55.8559 39.9979 54 40Z" fill="white"/>
<path d="M13.464 54.354L12.05 55.768L14.172 57.889C14.3595 58.0765 14.6138 58.1818 14.879 58.1818C15.1442 58.1818 15.3985 58.0765 15.586 57.889L21.95 51.525L20.536 50.111L14.879 55.768L13.464 54.354Z" fill="white"/>
<path d="M56.829 28.757L54 31.586L51.171 28.757L49.757 30.171L52.586 33L49.757 35.829L51.171 37.243L54 34.414L56.829 37.243L58.243 35.829L55.414 33L58.243 30.171L56.829 28.757Z" fill="white"/>
<path d="M49 1.5H47V4.5H49V1.5Z" fill="white"/>
<path d="M53.9499 3.25512L51.7154 5.25534L53.0493 6.74552L55.2839 4.74531L53.9499 3.25512Z" fill="white"/>
<path d="M42.0489 3.25458L40.7153 4.74509L42.9504 6.74476L44.2839 5.25425L42.0489 3.25458Z" fill="white"/>
<path d="M32 54C31.04 54.0003 30.081 53.9382 29.129 53.814L28.871 55.8C29.9086 55.9338 30.9538 56.0006 32 56C35.8995 55.9992 39.7401 55.0488 43.1899 53.2308C46.6397 51.4129 49.5949 48.7821 51.8 45.566L50.15 44.434C48.1289 47.3825 45.4201 49.7944 42.2578 51.4611C39.0954 53.1279 35.5747 53.9993 32 54ZM39.3 9.132C36.2099 8.14888 32.9527 7.80143 29.7247 8.11056C26.4967 8.4197 23.3647 9.37903 20.5173 10.9308C17.67 12.4825 15.1661 14.5945 13.1567 17.1397C11.1472 19.6848 9.67376 22.6103 8.825 25.74L10.756 26.26C11.5346 23.3905 12.886 20.7084 14.7287 18.3751C16.5714 16.0418 18.8674 14.1057 21.4784 12.6833C24.0893 11.261 26.9611 10.3819 29.9208 10.0989C32.8805 9.81598 35.8669 10.1351 38.7 11.037L39.3 9.132Z" fill="white"/>
</svg>
