<svg width="49" height="60" viewBox="0 0 49 60" fill="none" xmlns="http://www.w3.org/2000/svg">
<path d="M33.9493 25.6812C35.4135 27.1454 36.575 28.8836 37.3674 30.7967C38.1598 32.7098 38.5677 34.7602 38.5677 36.8309C38.5677 38.9016 38.1598 40.9521 37.3674 42.8651C36.575 44.7782 35.4135 46.5165 33.9493 47.9807C32.4851 49.4449 30.7468 50.6064 28.8337 51.3988C26.9206 52.1912 24.8702 52.5991 22.7995 52.5991C20.7288 52.5991 18.6784 52.1912 16.7653 51.3988C14.8522 50.6064 13.114 49.4449 11.6498 47.9807L22.7995 36.8309L33.9493 25.6812Z" fill="#D9D9D9"/>
<path d="M15.0507 33.4493C13.5865 31.9851 12.425 30.2468 11.6326 28.3337C10.8402 26.4207 10.4323 24.3702 10.4323 22.2995C10.4323 20.2288 10.8402 18.1784 11.6326 16.2653C12.425 14.3522 13.5865 12.614 15.0507 11.1498C16.5149 9.68556 18.2532 8.52409 20.1663 7.73167C22.0794 6.93924 24.1298 6.53139 26.2005 6.53139C28.2712 6.53139 30.3216 6.93924 32.2347 7.73167C34.1478 8.52409 35.886 9.68557 37.3502 11.1498L26.2005 22.2995L15.0507 33.4493Z" fill="#D9D9D9"/>
<path d="M6.45166 29.7585L15.4179 38.7247L36.5193 17.6232" stroke="url(#paint0_linear_46_144)" stroke-width="3" stroke-linecap="round"/>
<defs>
<linearGradient id="paint0_linear_46_144" x1="6.45166" y1="28.174" x2="36.5193" y2="28.174" gradientUnits="userSpaceOnUse">
<stop stop-color="#EB0C2B"/>
<stop offset="1" stop-color="#7B38BA"/>
</linearGradient>
</defs>
</svg>
