<svg width="293" height="61" viewBox="0 0 293 61" fill="none" xmlns="http://www.w3.org/2000/svg">
<path d="M68.768 40.9148C67.0827 40.9148 65.5627 40.6214 64.208 40.0348C62.864 39.4481 61.7547 38.6108 60.88 37.5228C60.016 36.4241 59.4667 35.1228 59.232 33.6188L63.232 33.0108C63.5733 34.3761 64.272 35.4321 65.328 36.1788C66.3947 36.9254 67.6213 37.2988 69.008 37.2988C69.8293 37.2988 70.6027 37.1708 71.328 36.9148C72.0533 36.6588 72.64 36.2854 73.088 35.7948C73.5467 35.3041 73.776 34.7014 73.776 33.9868C73.776 33.6668 73.7227 33.3734 73.616 33.1068C73.5093 32.8294 73.3493 32.5841 73.136 32.3708C72.9333 32.1574 72.6667 31.9654 72.336 31.7948C72.016 31.6134 71.6427 31.4588 71.216 31.3308L65.264 29.5708C64.752 29.4214 64.1973 29.2241 63.6 28.9788C63.0133 28.7228 62.4533 28.3761 61.92 27.9388C61.3973 27.4908 60.9653 26.9254 60.624 26.2428C60.2933 25.5494 60.128 24.6961 60.128 23.6828C60.128 22.2001 60.5013 20.9574 61.248 19.9548C62.0053 18.9414 63.0187 18.1841 64.288 17.6828C65.568 17.1814 66.9867 16.9361 68.544 16.9468C70.1227 16.9574 71.5307 17.2294 72.768 17.7628C74.0053 18.2854 75.04 19.0481 75.872 20.0508C76.704 21.0534 77.2907 22.2641 77.632 23.6828L73.488 24.4028C73.3173 23.5921 72.9867 22.9041 72.496 22.3388C72.016 21.7628 71.424 21.3254 70.72 21.0268C70.0267 20.7281 69.2853 20.5681 68.496 20.5468C67.728 20.5361 67.0133 20.6534 66.352 20.8988C65.7013 21.1334 65.1733 21.4748 64.768 21.9228C64.3733 22.3708 64.176 22.8934 64.176 23.4908C64.176 24.0561 64.3467 24.5201 64.688 24.8828C65.0293 25.2348 65.4507 25.5174 65.952 25.7308C66.464 25.9334 66.9813 26.1041 67.504 26.2428L71.632 27.3948C72.1973 27.5441 72.832 27.7468 73.536 28.0028C74.24 28.2588 74.9173 28.6161 75.568 29.0748C76.2187 29.5334 76.752 30.1361 77.168 30.8828C77.5947 31.6294 77.808 32.5788 77.808 33.7308C77.808 34.9254 77.5573 35.9761 77.056 36.8828C76.5653 37.7788 75.8987 38.5254 75.056 39.1228C74.2133 39.7201 73.248 40.1681 72.16 40.4668C71.0827 40.7654 69.952 40.9148 68.768 40.9148ZM93.2233 40.4348V32.1148C93.2233 31.5708 93.1859 30.9681 93.1113 30.3068C93.0366 29.6454 92.8606 29.0108 92.5833 28.4028C92.3166 27.7841 91.9113 27.2774 91.3673 26.8828C90.8339 26.4881 90.1086 26.2908 89.1913 26.2908C88.7006 26.2908 88.2153 26.3708 87.7353 26.5308C87.2553 26.6908 86.8179 26.9681 86.4233 27.3628C86.0393 27.7468 85.7299 28.2801 85.4953 28.9628C85.2606 29.6348 85.1433 30.4988 85.1433 31.5548L82.8553 30.5788C82.8553 29.1068 83.1379 27.7734 83.7033 26.5788C84.2793 25.3841 85.1219 24.4348 86.2313 23.7308C87.3406 23.0161 88.7059 22.6588 90.3273 22.6588C91.6073 22.6588 92.6633 22.8721 93.4953 23.2988C94.3273 23.7254 94.9886 24.2694 95.4792 24.9308C95.9699 25.5921 96.3326 26.2961 96.5673 27.0428C96.8019 27.7894 96.9513 28.4988 97.0153 29.1708C97.0899 29.8321 97.1273 30.3708 97.1273 30.7868V40.4348H93.2233ZM81.2393 40.4348V17.3948H84.6793V29.5228H85.1433V40.4348H81.2393ZM108.935 40.9148C107.207 40.9148 105.697 40.5254 104.407 39.7468C103.116 38.9681 102.113 37.8961 101.399 36.5308C100.695 35.1548 100.343 33.5761 100.343 31.7948C100.343 29.9814 100.705 28.3921 101.431 27.0268C102.156 25.6614 103.164 24.5948 104.455 23.8268C105.745 23.0588 107.239 22.6748 108.935 22.6748C110.673 22.6748 112.188 23.0641 113.479 23.8428C114.769 24.6214 115.772 25.6988 116.487 27.0748C117.201 28.4401 117.559 30.0134 117.559 31.7948C117.559 33.5868 117.196 35.1708 116.471 36.5468C115.756 37.9121 114.753 38.9841 113.463 39.7628C112.172 40.5308 110.663 40.9148 108.935 40.9148ZM108.935 37.2988C110.471 37.2988 111.612 36.7868 112.359 35.7628C113.105 34.7388 113.479 33.4161 113.479 31.7948C113.479 30.1201 113.1 28.7868 112.343 27.7948C111.585 26.7921 110.449 26.2908 108.935 26.2908C107.9 26.2908 107.047 26.5254 106.375 26.9948C105.713 27.4534 105.223 28.0988 104.903 28.9308C104.583 29.7521 104.423 30.7068 104.423 31.7948C104.423 33.4694 104.801 34.8081 105.559 35.8108C106.327 36.8028 107.452 37.2988 108.935 37.2988ZM129.388 40.9148C127.702 40.9148 126.289 40.5148 125.148 39.7148C124.006 38.9148 123.148 37.8268 122.572 36.4508C121.996 35.0641 121.708 33.5121 121.708 31.7948C121.708 30.0561 121.996 28.4988 122.572 27.1228C123.148 25.7468 123.99 24.6641 125.1 23.8748C126.22 23.0748 127.601 22.6748 129.244 22.6748C130.876 22.6748 132.289 23.0748 133.484 23.8748C134.689 24.6641 135.622 25.7468 136.284 27.1228C136.945 28.4881 137.276 30.0454 137.276 31.7948C137.276 33.5228 136.95 35.0748 136.3 36.4508C135.649 37.8268 134.732 38.9148 133.548 39.7148C132.364 40.5148 130.977 40.9148 129.388 40.9148ZM121.052 48.1148V23.1548H124.46V35.2828H124.94V48.1148H121.052ZM128.796 37.4588C129.798 37.4588 130.625 37.2081 131.276 36.7068C131.926 36.2054 132.406 35.5281 132.716 34.6748C133.036 33.8108 133.196 32.8508 133.196 31.7948C133.196 30.7494 133.036 29.8001 132.716 28.9468C132.396 28.0828 131.9 27.4001 131.228 26.8988C130.556 26.3868 129.702 26.1308 128.668 26.1308C127.686 26.1308 126.886 26.3708 126.268 26.8508C125.649 27.3201 125.19 27.9814 124.892 28.8348C124.604 29.6774 124.46 30.6641 124.46 31.7948C124.46 32.9148 124.604 33.9014 124.892 34.7548C125.19 35.6081 125.654 36.2748 126.284 36.7548C126.924 37.2241 127.761 37.4588 128.796 37.4588ZM149.107 40.9148C147.421 40.9148 146.008 40.5148 144.867 39.7148C143.725 38.9148 142.867 37.8268 142.291 36.4508C141.715 35.0641 141.427 33.5121 141.427 31.7948C141.427 30.0561 141.715 28.4988 142.291 27.1228C142.867 25.7468 143.709 24.6641 144.819 23.8748C145.939 23.0748 147.32 22.6748 148.963 22.6748C150.595 22.6748 152.008 23.0748 153.203 23.8748C154.408 24.6641 155.341 25.7468 156.003 27.1228C156.664 28.4881 156.995 30.0454 156.995 31.7948C156.995 33.5228 156.669 35.0748 156.019 36.4508C155.368 37.8268 154.451 38.9148 153.267 39.7148C152.083 40.5148 150.696 40.9148 149.107 40.9148ZM140.771 48.1148V23.1548H144.179V35.2828H144.659V48.1148H140.771ZM148.515 37.4588C149.517 37.4588 150.344 37.2081 150.995 36.7068C151.645 36.2054 152.125 35.5281 152.435 34.6748C152.755 33.8108 152.915 32.8508 152.915 31.7948C152.915 30.7494 152.755 29.8001 152.435 28.9468C152.115 28.0828 151.619 27.4001 150.947 26.8988C150.275 26.3868 149.421 26.1308 148.387 26.1308C147.405 26.1308 146.605 26.3708 145.987 26.8508C145.368 27.3201 144.909 27.9814 144.611 28.8348C144.323 29.6774 144.179 30.6641 144.179 31.7948C144.179 32.9148 144.323 33.9014 144.611 34.7548C144.909 35.6081 145.373 36.2748 146.003 36.7548C146.643 37.2241 147.48 37.4588 148.515 37.4588ZM160.841 20.5308V16.9948H164.697V20.5308H160.841ZM160.841 40.4348V23.1548H164.697V40.4348H160.841ZM181.442 40.4348V32.1148C181.442 31.5708 181.405 30.9681 181.33 30.3068C181.255 29.6454 181.079 29.0108 180.802 28.4028C180.535 27.7841 180.13 27.2774 179.586 26.8828C179.053 26.4881 178.327 26.2908 177.41 26.2908C176.919 26.2908 176.434 26.3708 175.954 26.5308C175.474 26.6908 175.037 26.9681 174.642 27.3628C174.258 27.7468 173.949 28.2801 173.714 28.9628C173.479 29.6348 173.362 30.4988 173.362 31.5548L171.074 30.5788C171.074 29.1068 171.357 27.7734 171.922 26.5788C172.498 25.3841 173.341 24.4348 174.45 23.7308C175.559 23.0161 176.925 22.6588 178.546 22.6588C179.826 22.6588 180.882 22.8721 181.714 23.2988C182.546 23.7254 183.207 24.2694 183.698 24.9308C184.189 25.5921 184.551 26.2961 184.786 27.0428C185.021 27.7894 185.17 28.4988 185.234 29.1708C185.309 29.8321 185.346 30.3708 185.346 30.7868V40.4348H181.442ZM169.458 40.4348V23.1548H172.898V28.5148H173.362V40.4348H169.458ZM196.785 48.5948C195.825 48.5948 194.903 48.4454 194.017 48.1468C193.143 47.8481 192.353 47.4161 191.649 46.8508C190.945 46.2961 190.369 45.6241 189.921 44.8348L193.473 43.0748C193.804 43.7041 194.268 44.1681 194.865 44.4668C195.473 44.7761 196.119 44.9308 196.801 44.9308C197.601 44.9308 198.316 44.7868 198.945 44.4988C199.575 44.2214 200.06 43.8054 200.401 43.2508C200.753 42.7068 200.919 42.0241 200.897 41.2028V36.2908H201.377V23.1548H204.753V41.2668C204.753 41.7041 204.732 42.1201 204.689 42.5148C204.657 42.9201 204.599 43.3148 204.513 43.6988C204.257 44.8188 203.767 45.7361 203.041 46.4508C202.316 47.1761 201.415 47.7148 200.337 48.0668C199.271 48.4188 198.087 48.5948 196.785 48.5948ZM196.449 40.9148C194.86 40.9148 193.473 40.5148 192.289 39.7148C191.105 38.9148 190.188 37.8268 189.537 36.4508C188.887 35.0748 188.561 33.5228 188.561 31.7948C188.561 30.0454 188.887 28.4881 189.537 27.1228C190.199 25.7468 191.132 24.6641 192.337 23.8748C193.543 23.0748 194.961 22.6748 196.593 22.6748C198.236 22.6748 199.612 23.0748 200.721 23.8748C201.841 24.6641 202.689 25.7468 203.265 27.1228C203.841 28.4988 204.129 30.0561 204.129 31.7948C204.129 33.5121 203.841 35.0641 203.265 36.4508C202.689 37.8268 201.831 38.9148 200.689 39.7148C199.548 40.5148 198.135 40.9148 196.449 40.9148ZM197.041 37.4588C198.076 37.4588 198.908 37.2241 199.537 36.7548C200.177 36.2748 200.641 35.6081 200.929 34.7548C201.228 33.9014 201.377 32.9148 201.377 31.7948C201.377 30.6641 201.228 29.6774 200.929 28.8348C200.641 27.9814 200.188 27.3201 199.569 26.8508C198.951 26.3708 198.151 26.1308 197.169 26.1308C196.135 26.1308 195.281 26.3868 194.609 26.8988C193.937 27.4001 193.441 28.0828 193.121 28.9468C192.801 29.8001 192.641 30.7494 192.641 31.7948C192.641 32.8508 192.796 33.8108 193.105 34.6748C193.425 35.5281 193.911 36.2054 194.561 36.7068C195.212 37.2081 196.039 37.4588 197.041 37.4588ZM213.912 40.4348L207.64 23.1548H211.496L215.848 35.6828L220.184 23.1548H224.056L217.784 40.4348H213.912ZM234.159 40.9148C232.409 40.9148 230.873 40.5361 229.551 39.7788C228.228 39.0214 227.193 37.9708 226.447 36.6268C225.711 35.2828 225.343 33.7361 225.343 31.9868C225.343 30.0988 225.705 28.4614 226.431 27.0748C227.156 25.6774 228.164 24.5948 229.455 23.8268C230.745 23.0588 232.239 22.6748 233.935 22.6748C235.727 22.6748 237.247 23.0961 238.495 23.9388C239.753 24.7708 240.687 25.9494 241.295 27.4748C241.903 29.0001 242.132 30.7974 241.983 32.8668H238.159V31.4588C238.148 29.5814 237.817 28.2108 237.167 27.3468C236.516 26.4828 235.492 26.0508 234.095 26.0508C232.516 26.0508 231.343 26.5414 230.575 27.5228C229.807 28.4934 229.423 29.9174 229.423 31.7948C229.423 33.5441 229.807 34.8988 230.575 35.8588C231.343 36.8188 232.463 37.2988 233.935 37.2988C234.884 37.2988 235.7 37.0908 236.383 36.6748C237.076 36.2481 237.609 35.6348 237.983 34.8348L241.791 35.9868C241.129 37.5441 240.105 38.7548 238.719 39.6188C237.343 40.4828 235.823 40.9148 234.159 40.9148ZM228.207 32.8668V29.9548H240.095V32.8668H228.207ZM245.553 40.4348V23.1548H248.961V27.3628L248.545 26.8188C248.758 26.2428 249.041 25.7201 249.393 25.2508C249.755 24.7708 250.187 24.3761 250.689 24.0668C251.115 23.7788 251.585 23.5548 252.097 23.3948C252.619 23.2241 253.153 23.1228 253.697 23.0908C254.241 23.0481 254.769 23.0694 255.281 23.1548V26.7548C254.769 26.6054 254.177 26.5574 253.505 26.6108C252.843 26.6641 252.246 26.8508 251.713 27.1708C251.179 27.4588 250.742 27.8268 250.401 28.2748C250.07 28.7228 249.825 29.2348 249.665 29.8108C249.505 30.3761 249.425 30.9894 249.425 31.6508V40.4348H245.553ZM264.381 40.9148C262.247 40.9148 260.514 40.4348 259.181 39.4748C257.847 38.5148 257.037 37.1654 256.749 35.4268L260.685 34.8188C260.887 35.6721 261.335 36.3441 262.029 36.8348C262.722 37.3254 263.597 37.5708 264.653 37.5708C265.581 37.5708 266.295 37.3894 266.797 37.0268C267.309 36.6534 267.565 36.1468 267.565 35.5068C267.565 35.1121 267.469 34.7974 267.277 34.5628C267.095 34.3174 266.69 34.0828 266.061 33.8588C265.431 33.6348 264.466 33.3521 263.165 33.0108C261.714 32.6268 260.562 32.2161 259.709 31.7788C258.855 31.3308 258.242 30.8028 257.869 30.1948C257.495 29.5868 257.309 28.8508 257.309 27.9868C257.309 26.9094 257.591 25.9708 258.157 25.1708C258.722 24.3708 259.511 23.7574 260.525 23.3308C261.538 22.8934 262.733 22.6748 264.109 22.6748C265.453 22.6748 266.642 22.8828 267.677 23.2988C268.722 23.7148 269.565 24.3068 270.205 25.0748C270.845 25.8428 271.239 26.7441 271.389 27.7788L267.453 28.4828C267.357 27.7468 267.021 27.1654 266.445 26.7388C265.879 26.3121 265.122 26.0721 264.173 26.0188C263.266 25.9654 262.535 26.1041 261.981 26.4348C261.426 26.7548 261.149 27.2081 261.149 27.7948C261.149 28.1254 261.261 28.4081 261.485 28.6428C261.709 28.8774 262.157 29.1121 262.829 29.3468C263.511 29.5814 264.525 29.8694 265.869 30.2108C267.245 30.5628 268.343 30.9681 269.165 31.4268C269.997 31.8748 270.594 32.4134 270.957 33.0428C271.33 33.6721 271.517 34.4348 271.517 35.3308C271.517 37.0694 270.882 38.4348 269.613 39.4268C268.354 40.4188 266.61 40.9148 264.381 40.9148ZM282.877 40.9148C281.128 40.9148 279.592 40.5361 278.269 39.7788C276.947 39.0214 275.912 37.9708 275.165 36.6268C274.429 35.2828 274.061 33.7361 274.061 31.9868C274.061 30.0988 274.424 28.4614 275.149 27.0748C275.875 25.6774 276.883 24.5948 278.173 23.8268C279.464 23.0588 280.957 22.6748 282.653 22.6748C284.445 22.6748 285.965 23.0961 287.213 23.9388C288.472 24.7708 289.405 25.9494 290.013 27.4748C290.621 29.0001 290.851 30.7974 290.701 32.8668H286.877V31.4588C286.867 29.5814 286.536 28.2108 285.885 27.3468C285.235 26.4828 284.211 26.0508 282.813 26.0508C281.235 26.0508 280.061 26.5414 279.293 27.5228C278.525 28.4934 278.141 29.9174 278.141 31.7948C278.141 33.5441 278.525 34.8988 279.293 35.8588C280.061 36.8188 281.181 37.2988 282.653 37.2988C283.603 37.2988 284.419 37.0908 285.101 36.6748C285.795 36.2481 286.328 35.6348 286.701 34.8348L290.509 35.9868C289.848 37.5441 288.824 38.7548 287.437 39.6188C286.061 40.4828 284.541 40.9148 282.877 40.9148ZM276.925 32.8668V29.9548H288.813V32.8668H276.925Z" fill="white"/>
<path d="M33.4493 26.6159C34.9135 28.0801 36.075 29.8184 36.8674 31.7315C37.6598 33.6446 38.0677 35.695 38.0677 37.7657C38.0677 39.8364 37.6598 41.8868 36.8674 43.7999C36.075 45.713 34.9135 47.4512 33.4493 48.9154C31.9851 50.3797 30.2468 51.5411 28.3337 52.3335C26.4206 53.126 24.3702 53.5338 22.2995 53.5338C20.2288 53.5338 18.1784 53.126 16.2653 52.3335C14.3522 51.5411 12.614 50.3797 11.1498 48.9154L22.2995 37.7657L33.4493 26.6159Z" fill="white"/>
<path d="M14.5507 34.384C13.0865 32.9198 11.925 31.1816 11.1326 29.2685C10.3402 27.3554 9.93234 25.305 9.93234 23.2343C9.93234 21.1636 10.3402 19.1132 11.1326 17.2001C11.925 15.287 13.0865 13.5487 14.5507 12.0845C16.0149 10.6203 17.7532 9.45884 19.6663 8.66642C21.5794 7.874 23.6298 7.46614 25.7005 7.46614C27.7712 7.46614 29.8216 7.874 31.7347 8.66642C33.6478 9.45885 35.386 10.6203 36.8502 12.0845L25.7005 23.2343L14.5507 34.384Z" fill="white"/>
<path d="M5.95166 30.6933L14.9179 39.6595L36.0193 18.558" stroke="url(#paint0_linear_46_14)" stroke-width="3" stroke-linecap="round"/>
<defs>
<linearGradient id="paint0_linear_46_14" x1="5.95166" y1="29.1087" x2="36.0193" y2="29.1087" gradientUnits="userSpaceOnUse">
<stop stop-color="#EB0C2B"/>
<stop offset="1" stop-color="#7B38BA"/>
</linearGradient>
</defs>
</svg>
