<svg width="64" height="64" viewBox="0 0 64 64" fill="none" xmlns="http://www.w3.org/2000/svg">
<path fill-rule="evenodd" clip-rule="evenodd" d="M31 8.828V11.422L23.706 15.634L21.28 11.434C22.084 10.494 22.25 9.114 21.598 7.984C20.77 6.55 18.934 6.058 17.5 6.886C16.066 7.714 15.574 9.55 16.402 10.984C17.054 12.114 18.334 12.658 19.548 12.434L21.974 16.634L14.68 20.846L12.434 19.548C12.658 18.334 12.114 17.054 10.984 16.402C9.55 15.574 7.714 16.066 6.886 17.5C6.058 18.934 6.55 20.77 7.984 21.598C9.114 22.25 10.494 22.084 11.434 21.28L13.68 22.578V31H8.828C8.416 29.836 7.306 29 6 29C4.344 29 3 30.344 3 32C3 33.656 4.344 35 6 35C7.306 35 8.416 34.164 8.828 33H13.68V41.422L11.434 42.72C10.494 41.916 9.114 41.75 7.984 42.402C6.55 43.23 6.058 45.066 6.886 46.5C7.714 47.934 9.55 48.426 10.984 47.598C12.114 46.946 12.658 45.666 12.434 44.452L14.68 43.154L21.974 47.366L19.548 51.566C18.334 51.342 17.054 51.886 16.402 53.016C15.574 54.45 16.066 56.286 17.5 57.114C18.934 57.942 20.77 57.45 21.598 56.016C22.25 54.886 22.084 53.506 21.28 52.566L23.706 48.366L31 52.578V55.172C29.836 55.584 29 56.694 29 58C29 59.656 30.344 61 32 61C33.656 61 35 59.656 35 58C35 56.694 34.164 55.584 33 55.172V52.578L40.294 48.366L42.72 52.566C41.916 53.506 41.75 54.886 42.402 56.016C43.23 57.45 45.066 57.942 46.5 57.114C47.934 56.286 48.426 54.45 47.598 53.016C46.946 51.886 45.666 51.342 44.452 51.566L42.026 47.366L49.32 43.154L51.566 44.452C51.342 45.666 51.886 46.946 53.016 47.598C54.45 48.426 56.286 47.934 57.114 46.5C57.942 45.066 57.45 43.23 56.016 42.402C54.886 41.75 53.506 41.916 52.566 42.72L50.32 41.422V33H55.172C55.584 34.164 56.694 35 58 35C59.656 35 61 33.656 61 32C61 30.344 59.656 29 58 29C56.694 29 55.584 29.836 55.172 31H50.32V22.578L52.566 21.28C53.506 22.084 54.886 22.25 56.016 21.598C57.45 20.77 57.942 18.934 57.114 17.5C56.286 16.066 54.45 15.574 53.016 16.402C51.886 17.054 51.342 18.334 51.566 19.548L49.32 20.846L42.026 16.634L44.452 12.434C45.666 12.658 46.946 12.114 47.598 10.984C48.426 9.55 47.934 7.714 46.5 6.886C45.066 6.058 43.23 6.55 42.402 7.984C41.75 9.114 41.916 10.494 42.72 11.434L40.294 15.634L33 11.422V8.828C34.164 8.416 35 7.306 35 6C35 4.344 33.656 3 32 3C30.344 3 29 4.344 29 6C29 7.306 29.836 8.416 31 8.828ZM32 59C31.448 59 31 58.552 31 58C31 57.448 31.448 57 32 57C32.552 57 33 57.448 33 58C33 58.552 32.552 59 32 59ZM45.866 54.016C46.142 54.494 45.978 55.106 45.5 55.382C45.022 55.658 44.41 55.494 44.134 55.016C43.858 54.538 44.022 53.926 44.5 53.65C44.978 53.374 45.59 53.538 45.866 54.016ZM18.134 54.016C18.41 53.538 19.022 53.374 19.5 53.65C19.978 53.926 20.142 54.538 19.866 55.016C19.59 55.494 18.978 55.658 18.5 55.382C18.022 55.106 17.858 54.494 18.134 54.016ZM32 13.154L48.32 22.578V41.422L32 50.846L15.68 41.422V22.578L32 13.154ZM32.5 15.134C32.19 14.956 31.81 14.956 31.5 15.134L17.644 23.134C17.334 23.312 17.144 23.642 17.144 24V40C17.144 40.358 17.334 40.688 17.644 40.866L31.5 48.866C31.81 49.044 32.19 49.044 32.5 48.866L46.356 40.866C46.666 40.688 46.856 40.358 46.856 40V24C46.856 23.642 46.666 23.312 46.356 23.134L32.5 15.134ZM55.382 45.5C55.106 45.978 54.494 46.142 54.016 45.866C53.538 45.59 53.374 44.978 53.65 44.5C53.926 44.022 54.538 43.858 55.016 44.134C55.494 44.41 55.658 45.022 55.382 45.5ZM8.618 45.5C8.342 45.022 8.506 44.41 8.984 44.134C9.462 43.858 10.074 44.022 10.35 44.5C10.626 44.978 10.462 45.59 9.984 45.866C9.506 46.142 8.894 45.978 8.618 45.5ZM23 36V32.236L25.106 36.448C25.312 36.862 25.778 37.08 26.23 36.974C26.682 36.866 27 36.464 27 36V28C27 27.448 26.552 27 26 27C25.448 27 25 27.448 25 28V31.764L22.894 27.552C22.688 27.138 22.222 26.92 21.77 27.026C21.318 27.134 21 27.536 21 28V36C21 36.552 21.448 37 22 37C22.552 37 23 36.552 23 36ZM39 29V36C39 36.552 39.448 37 40 37C40.552 37 41 36.552 41 36V29H42C42.552 29 43 28.552 43 28C43 27.448 42.552 27 42 27H38C37.448 27 37 27.448 37 28C37 28.552 37.448 29 38 29H39ZM31 33H32C32.552 33 33 32.552 33 32C33 31.448 32.552 31 32 31H31V29H34C34.552 29 35 28.552 35 28C35 27.448 34.552 27 34 27H30C29.448 27 29 27.448 29 28V36C29 36.552 29.448 37 30 37C30.552 37 31 36.552 31 36V33ZM6 31C6.552 31 7 31.448 7 32C7 32.552 6.552 33 6 33C5.448 33 5 32.552 5 32C5 31.448 5.448 31 6 31ZM58 31C58.552 31 59 31.448 59 32C59 32.552 58.552 33 58 33C57.448 33 57 32.552 57 32C57 31.448 57.448 31 58 31ZM8.618 18.5C8.894 18.022 9.506 17.858 9.984 18.134C10.462 18.41 10.626 19.022 10.35 19.5C10.074 19.978 9.462 20.142 8.984 19.866C8.506 19.59 8.342 18.978 8.618 18.5ZM55.382 18.5C55.658 18.978 55.494 19.59 55.016 19.866C54.538 20.142 53.926 19.978 53.65 19.5C53.374 19.022 53.538 18.41 54.016 18.134C54.494 17.858 55.106 18.022 55.382 18.5ZM19.866 8.984C20.142 9.462 19.978 10.074 19.5 10.35C19.022 10.626 18.41 10.462 18.134 9.984C17.858 9.506 18.022 8.894 18.5 8.618C18.978 8.342 19.59 8.506 19.866 8.984ZM44.134 8.984C44.41 8.506 45.022 8.342 45.5 8.618C45.978 8.894 46.142 9.506 45.866 9.984C45.59 10.462 44.978 10.626 44.5 10.35C44.022 10.074 43.858 9.462 44.134 8.984ZM32 5C32.552 5 33 5.448 33 6C33 6.552 32.552 7 32 7C31.448 7 31 6.552 31 6C31 5.448 31.448 5 32 5Z" fill="white"/>
</svg>
