<svg width="64" height="64" viewBox="0 0 64 64" fill="none" xmlns="http://www.w3.org/2000/svg">
<path d="M20.5724 14.2222C19.8324 14.226 19.1237 14.5216 18.6004 15.0449C18.0771 15.5682 17.7815 16.2769 17.7778 17.0169V18.5991C17.7757 18.6216 17.7745 18.6441 17.7742 18.6667V21.3333H6.35021C5.61017 21.3371 4.9015 21.6327 4.37821 22.156C3.85492 22.6793 3.55928 23.388 3.55554 24.128V46.9867C3.55554 48.5191 4.81776 49.7778 6.35021 49.7778H45.2053C46.7378 49.7778 48 48.5191 48 46.9867V42.6667H59.4275C60.96 42.6667 62.2222 41.408 62.2222 39.8756V17.0169C62.2185 16.2769 61.9228 15.5682 61.3995 15.0449C60.8762 14.5216 60.1676 14.226 59.4275 14.2222H20.5724ZM20.5724 16H59.4275C59.5619 15.9971 59.6954 16.0214 59.8201 16.0715C59.9448 16.1216 60.0581 16.1964 60.1531 16.2914C60.2481 16.3864 60.3229 16.4996 60.373 16.6243C60.423 16.749 60.4473 16.8826 60.4444 17.0169V17.7778H19.5555V17.0169C19.5526 16.8826 19.5769 16.749 19.627 16.6243C19.6771 16.4996 19.7519 16.3864 19.8469 16.2914C19.9419 16.1964 20.0552 16.1216 20.1799 16.0715C20.3046 16.0214 20.4381 15.9971 20.5724 16ZM19.5555 19.5556H60.4444V23.1111H48.0658L48.0515 22.2987C48.0478 22.066 47.953 21.8441 47.7875 21.6806C47.622 21.517 47.3989 21.4249 47.1662 21.424L45.8613 21.4205C45.6464 21.3647 45.4255 21.3355 45.2035 21.3333H19.5555V19.5556V19.5556ZM6.35021 23.1111H18.6595L45.6213 23.1947C45.8028 23.273 45.9569 23.4036 46.0639 23.5698C46.1709 23.736 46.226 23.9304 46.2222 24.128V46.9867C46.2246 47.1207 46.2 47.2539 46.1497 47.3781C46.0994 47.5024 46.0245 47.6153 45.9295 47.7099C45.8346 47.8045 45.7215 47.879 45.597 47.9288C45.4726 47.9787 45.3394 48.0029 45.2053 48H6.35021C6.21618 48.0029 6.08294 47.9787 5.95849 47.9288C5.83404 47.879 5.72095 47.8045 5.62598 47.7099C5.53102 47.6153 5.45615 47.5024 5.40586 47.3781C5.35557 47.2539 5.33089 47.1207 5.33332 46.9867V24.128C5.33041 23.9937 5.35472 23.8601 5.4048 23.7354C5.45487 23.6108 5.52966 23.4975 5.62468 23.4025C5.71969 23.3075 5.83295 23.2327 5.95764 23.1826C6.08233 23.1325 6.21587 23.1082 6.35021 23.1111ZM48 24.8889H60.4444V39.8756C60.4469 40.0096 60.4222 40.1428 60.3719 40.267C60.3216 40.3913 60.2467 40.5041 60.1518 40.5988C60.0568 40.6934 59.9437 40.7679 59.8193 40.8177C59.6948 40.8676 59.5616 40.8918 59.4275 40.8889H48V35.4418C48.6166 35.5683 49.2531 35.5625 49.8673 35.4245C50.4815 35.2866 51.0593 35.0198 51.5627 34.6418C52.3075 35.2053 53.2213 35.5556 54.2222 35.5556C56.6667 35.5556 58.6667 33.5556 58.6667 31.1111C58.6667 28.6667 56.6667 26.6667 54.2222 26.6667C53.2231 26.6667 52.3093 27.0116 51.5662 27.5733C50.7819 26.9763 49.8212 26.6573 48.8355 26.6667C48.5511 26.6667 48.2738 26.7022 47.9982 26.7609V24.8889H48ZM48.8569 28.4409V28.4445C49.408 28.4445 49.8791 28.72 50.3129 29.0489C49.9822 29.6676 49.7778 30.3645 49.7778 31.1111C49.7778 31.8702 49.9911 32.5742 50.3289 33.2018C49.7244 33.616 49.0098 33.7529 48.2809 33.5805L48.3431 28.5529C48.5155 28.5156 48.6809 28.4427 48.8587 28.4409H48.8569ZM54.2222 28.4445C55.7049 28.4445 56.8889 29.6285 56.8889 31.1111C56.8889 32.5938 55.7049 33.7778 54.2222 33.7778C53.4898 33.7778 52.8302 33.488 52.3502 33.0169L52.2578 32.9102L52.2222 32.8676L52.2151 32.8569C52.0086 32.6207 51.8455 32.3499 51.7333 32.0569L51.7262 32.032C51.6156 31.7375 51.5578 31.4257 51.5555 31.1111V31.104C51.5555 30.7893 51.6178 30.4818 51.7262 30.1902L51.7333 30.1636C51.8435 29.872 52.0071 29.6 52.2151 29.3618L52.2222 29.3511L52.2578 29.3085L52.3502 29.2018C52.8302 28.7307 53.488 28.4445 54.2222 28.4445V28.4445ZM25.7778 28.448C21.8613 28.448 18.6667 31.6391 18.6667 35.5556C18.6667 39.472 21.8613 42.6667 25.7778 42.6667C29.6942 42.6667 32.8889 39.472 32.8889 35.5556C32.8851 33.6711 32.1346 31.8649 30.8017 30.5327C29.4688 29.2004 27.6623 28.4508 25.7778 28.448V28.448ZM13.3333 30.2222V32H16.8889V30.2222H13.3333ZM34.6667 30.2222V32H38.2222V30.2222H34.6667ZM25.7778 30.2258C28.7342 30.2258 31.1111 32.6027 31.1111 35.5591C31.113 36.2599 30.9763 36.9541 30.7089 37.6018C30.4415 38.2495 30.0486 38.838 29.553 39.3333C29.0573 39.8286 28.4686 40.2211 27.8207 40.488C27.1728 40.755 26.4785 40.8912 25.7778 40.8889C25.077 40.8912 24.3827 40.755 23.7348 40.488C23.0869 40.2211 22.4982 39.8286 22.0026 39.3333C21.5069 38.838 21.1141 38.2495 20.8466 37.6018C20.5792 36.9541 20.4426 36.2599 20.4444 35.5591C20.4444 32.6027 22.8213 30.2258 25.7778 30.2258ZM9.77776 34.6667V36.4445H15.1111V34.6667H9.77776ZM36.4444 34.6667V36.4445H41.7778V34.6667H36.4444ZM13.3333 39.1111V40.8889H16.8889V39.1111H13.3333ZM34.6667 39.1111V40.8889H38.2222V39.1111H34.6667Z" fill="white"/>
</svg>
