<svg width="348" height="342" viewBox="0 0 348 342" fill="none" xmlns="http://www.w3.org/2000/svg">
<rect width="344.833" height="340" rx="6" transform="matrix(0.999993 -0.00366518 -0.00721786 0.999974 2.4541 1.26367)" fill="#FEFEFE"/>
<rect width="274.726" height="267.033" rx="10" transform="matrix(0.999993 -0.00366517 -0.00721786 0.999974 37.2837 54.3018)" fill="white"/>
<rect width="6.76249" height="6.89113" rx="3.38125" transform="matrix(0.999993 -0.00366517 -0.00721786 0.999974 54.4878 284.248)" fill="#3167EB"/>
<path d="M66.0063 283.673L68.725 283.663L68.6702 291.257L69.9827 291.252L70.0375 283.658L72.7605 283.649L72.7687 282.515L66.0144 282.54L66.0063 283.673ZM75.9028 291.362C77.748 291.356 78.9637 290 78.9783 287.976C78.993 285.939 77.7968 284.593 75.9517 284.6C74.1065 284.607 72.8908 285.962 72.8761 287.999C72.8615 290.023 74.0577 291.369 75.9028 291.362ZM75.9148 290.293C74.7089 290.297 74.154 289.247 74.163 287.99C74.1721 286.737 74.7423 285.67 75.9482 285.665C77.1457 285.661 77.7005 286.724 77.6914 287.977C77.6824 289.234 77.1123 290.288 75.9148 290.293ZM83.4798 284.657L82.1374 284.662L82.1488 283.094L80.8746 283.099L80.8633 284.667L79.9045 284.671L79.8971 285.693L80.8559 285.69L80.828 289.555C80.8152 290.744 81.7187 291.316 82.7245 291.291C83.1294 291.285 83.4027 291.207 83.5522 291.151L83.3297 290.099C83.2443 290.117 83.0864 290.156 82.8818 290.157C82.4685 290.158 82.0987 290.023 82.1041 289.286L82.1301 285.685L83.4724 285.68L83.4798 284.657ZM86.7457 291.335C87.8281 291.332 88.4414 290.78 88.6879 290.289L88.739 290.288L88.7325 291.183L89.9769 291.179L90.0082 286.832C90.022 284.928 88.5247 284.554 87.485 284.558C86.3003 284.562 85.206 285.043 84.7712 286.238L85.9667 286.506C86.1575 286.041 86.638 285.592 87.4946 285.589C88.317 285.586 88.7358 286.015 88.7304 286.756L88.7302 286.786C88.7268 287.25 88.2496 287.244 87.0725 287.384C85.8314 287.534 84.5592 287.862 84.5485 289.349C84.5392 290.636 85.5014 291.34 86.7457 291.335ZM87.0301 290.312C86.3099 290.314 85.7924 289.992 85.7969 289.362C85.8018 288.68 86.4087 288.435 87.1466 288.334C87.5604 288.277 88.5413 288.163 88.7258 287.979L88.7198 288.823C88.7142 289.598 88.0912 290.308 87.0301 290.312ZM93.0111 282.441L91.7369 282.445L91.6739 291.173L92.9481 291.168L93.0111 282.441ZM103.485 284.584L102.117 284.589L100.427 289.632L100.359 289.632L98.7375 284.602L97.3696 284.607L99.7002 291.143L101.064 291.138L103.485 284.584ZM104.635 291.125L105.909 291.12L105.956 284.575L104.682 284.58L104.635 291.125ZM105.333 283.567C105.772 283.566 106.141 283.224 106.144 282.806C106.147 282.388 105.783 282.045 105.344 282.046C104.901 282.048 104.536 282.394 104.533 282.812C104.53 283.23 104.89 283.569 105.333 283.567ZM112.564 286.149C112.307 285.131 111.515 284.469 110.1 284.475C108.621 284.48 107.567 285.264 107.559 286.423C107.552 287.352 108.11 287.968 109.336 288.236L110.442 288.475C111.071 288.613 111.363 288.893 111.36 289.302C111.357 289.809 110.813 290.208 109.977 290.211C109.215 290.213 108.727 289.887 108.578 289.244L107.345 289.436C107.55 290.594 108.508 291.243 109.979 291.238C111.56 291.232 112.661 290.388 112.669 289.204C112.676 288.279 112.092 287.71 110.892 287.438L109.854 287.203C109.135 287.035 108.826 286.793 108.834 286.35C108.833 285.847 109.381 285.487 110.105 285.485C110.898 285.482 111.261 285.919 111.407 286.358L112.564 286.149ZM114.057 291.091L115.331 291.086L115.378 284.541L114.104 284.545L114.057 291.091ZM114.755 283.533C115.194 283.531 115.562 283.189 115.565 282.771C115.568 282.354 115.204 282.01 114.766 282.012C114.322 282.013 113.958 282.36 113.955 282.777C113.952 283.195 114.311 283.535 114.755 283.533ZM120.147 284.523L118.805 284.528L118.816 282.96L117.542 282.965L117.531 284.533L116.572 284.536L116.565 285.559L117.524 285.555L117.496 289.42C117.483 290.609 118.386 291.181 119.392 291.156C119.797 291.15 120.07 291.073 120.22 291.017L119.997 289.965C119.912 289.982 119.754 290.021 119.55 290.022C119.136 290.024 118.766 289.889 118.772 289.151L118.798 285.551L120.14 285.546L120.147 284.523ZM124.195 291.185C126.041 291.179 127.256 289.823 127.271 287.799C127.286 285.762 126.089 284.416 124.244 284.423C122.399 284.43 121.183 285.785 121.169 287.822C121.154 289.846 122.35 291.192 124.195 291.185ZM124.207 290.116C123.002 290.12 122.447 289.07 122.456 287.813C122.465 286.56 123.035 285.493 124.241 285.488C125.438 285.484 125.993 286.547 125.984 287.8C125.975 289.057 125.405 290.111 124.207 290.116ZM128.67 291.037L129.944 291.032L129.973 287.035C129.979 286.179 130.644 285.558 131.547 285.555C131.812 285.554 132.109 285.6 132.212 285.629L132.22 284.411C132.093 284.394 131.841 284.382 131.679 284.383C130.912 284.386 130.253 284.823 130.009 285.527L129.941 285.527L129.949 284.487L128.717 284.492L128.67 291.037ZM138.216 286.055C137.959 285.037 137.167 284.375 135.752 284.381C134.273 284.386 133.219 285.17 133.211 286.329C133.204 287.258 133.762 287.874 134.988 288.142L136.094 288.381C136.724 288.519 137.016 288.799 137.013 289.208C137.009 289.715 136.465 290.114 135.63 290.117C134.867 290.119 134.379 289.793 134.23 289.15L132.998 289.342C133.202 290.5 134.161 291.149 135.631 291.144C137.212 291.138 138.313 290.294 138.322 289.11C138.328 288.185 137.744 287.616 136.545 287.344L135.506 287.109C134.788 286.941 134.478 286.699 134.486 286.256C134.485 285.753 135.033 285.393 135.758 285.391C136.55 285.388 136.913 285.825 137.059 286.264L138.216 286.055Z" fill="#1C1C1C"/>
<path d="M147.137 292.643C148.799 292.637 150.027 291.405 150.039 289.735C150.051 288.043 148.884 286.808 147.282 286.814C146.694 286.816 146.121 287.027 145.761 287.313L145.71 287.314L146.035 284.739L149.683 284.725L149.69 283.788L145.156 283.804L144.596 288.102L145.584 288.217C145.948 287.956 146.568 287.766 147.104 287.769C148.217 287.773 149.024 288.614 149.016 289.756C149.008 290.877 148.218 291.702 147.144 291.706C146.249 291.709 145.542 291.136 145.467 290.348L144.444 290.352C144.498 291.681 145.637 292.649 147.137 292.643ZM154.557 292.616C156.484 292.609 157.603 290.973 157.624 288.122C157.644 285.293 156.531 283.643 154.622 283.65C152.713 283.657 151.576 285.315 151.556 288.144C151.535 290.995 152.631 292.623 154.557 292.616ZM154.564 291.679C153.294 291.683 152.562 290.412 152.578 288.141C152.595 285.874 153.354 284.575 154.616 284.571C155.877 284.566 156.618 285.859 156.601 288.126C156.585 290.397 155.834 291.674 154.564 291.679ZM163.672 290.827C163.665 291.782 164.256 292.581 165.364 292.576C166.455 292.572 167.057 291.769 167.064 290.815L167.068 290.354C167.075 289.4 166.501 288.601 165.393 288.605C164.302 288.609 163.683 289.412 163.676 290.367L163.672 290.827ZM159.362 285.849C159.355 286.803 159.946 287.602 161.054 287.598C162.145 287.594 162.747 286.791 162.754 285.836L162.757 285.376C162.764 284.422 162.19 283.623 161.082 283.627C159.991 283.631 159.372 284.434 159.365 285.389L159.362 285.849ZM159.638 292.478L160.609 292.475L166.672 283.726L165.701 283.729L159.638 292.478ZM164.545 290.364C164.549 289.835 164.791 289.34 165.388 289.338C166.001 289.336 166.202 289.829 166.198 290.358L166.195 290.818C166.191 291.346 165.966 291.841 165.37 291.844C164.756 291.846 164.538 291.352 164.542 290.824L164.545 290.364ZM160.234 285.385C160.238 284.857 160.48 284.362 161.077 284.36C161.691 284.357 161.892 284.851 161.888 285.379L161.885 285.84C161.881 286.368 161.656 286.863 161.059 286.865C160.445 286.868 160.227 286.374 160.231 285.846L160.234 285.385Z" fill="#AEB6CA"/>
<rect opacity="0.5" width="6.76249" height="6.89113" rx="3.38125" transform="matrix(0.999993 -0.00366517 -0.00721786 0.999974 185.487 284.488)" fill="#CDD2FD"/>
<path d="M198.119 291.502L198.936 289.19L202.345 289.177L203.126 291.484L204.523 291.479L201.446 282.763L199.924 282.769L196.721 291.507L198.119 291.502ZM199.328 288.08L200.642 284.351L200.71 284.351L201.97 288.071L199.328 288.08ZM208.797 284.918L207.386 284.923L207.391 284.335C207.395 283.756 207.636 283.439 208.258 283.437C208.522 283.436 208.709 283.495 208.828 283.533L209.134 282.501C208.955 282.433 208.585 282.328 208.07 282.33C207.034 282.334 206.122 282.942 206.113 284.169L206.108 284.928L205.098 284.932L205.091 285.954L206.1 285.951L206.061 291.473L207.339 291.468L207.379 285.946L208.789 285.941L208.797 284.918ZM213.226 284.902L211.816 284.907L211.82 284.319C211.824 283.739 212.065 283.423 212.687 283.421C212.952 283.42 213.139 283.479 213.258 283.517L213.563 282.485C213.385 282.417 213.015 282.312 212.499 282.314C211.464 282.317 210.552 282.926 210.543 284.153L210.538 284.912L209.528 284.915L209.52 285.938L210.53 285.934L210.49 291.457L211.769 291.452L211.809 285.93L213.219 285.925L213.226 284.902ZM214.494 291.442L215.768 291.438L215.815 284.892L214.541 284.897L214.494 291.442ZM215.192 283.885C215.631 283.883 216 283.541 216.003 283.123C216.006 282.706 215.642 282.362 215.203 282.363C214.76 282.365 214.395 282.712 214.392 283.129C214.389 283.547 214.749 283.886 215.192 283.885ZM218.819 282.7L217.545 282.704L217.482 291.431L218.756 291.427L218.819 282.7ZM220.47 291.42L221.744 291.416L221.792 284.87L220.518 284.875L220.47 291.42ZM221.168 283.863C221.607 283.861 221.976 283.519 221.979 283.101C221.982 282.684 221.618 282.34 221.179 282.342C220.736 282.343 220.371 282.69 220.368 283.107C220.365 283.525 220.725 283.864 221.168 283.863ZM225.362 291.547C226.445 291.543 227.058 290.991 227.305 290.5L227.356 290.5L227.349 291.395L228.594 291.391L228.625 287.044C228.639 285.139 227.141 284.766 226.102 284.769C224.917 284.774 223.823 285.255 223.388 286.45L224.583 286.718C224.774 286.253 225.255 285.804 226.111 285.801C226.934 285.798 227.352 286.226 227.347 286.968L227.347 286.998C227.343 287.462 226.866 287.455 225.689 287.596C224.448 287.745 223.176 288.074 223.165 289.561C223.156 290.848 224.118 291.552 225.362 291.547ZM225.647 290.524C224.927 290.526 224.409 290.204 224.414 289.574C224.418 288.892 225.025 288.647 225.763 288.546C226.177 288.489 227.158 288.375 227.342 288.191L227.336 289.035C227.331 289.81 226.708 290.52 225.647 290.524ZM233.393 284.828L232.051 284.833L232.062 283.265L230.788 283.269L230.777 284.837L229.818 284.841L229.811 285.864L230.769 285.86L230.741 289.725C230.729 290.914 231.632 291.486 232.638 291.461C233.043 291.455 233.316 291.378 233.466 291.322L233.243 290.27C233.158 290.287 233 290.326 232.795 290.327C232.382 290.328 232.012 290.193 232.018 289.456L232.043 285.856L233.386 285.851L233.393 284.828ZM237.505 291.49C238.933 291.485 239.948 290.778 240.245 289.712L239.041 289.499C238.806 290.117 238.25 290.435 237.526 290.437C236.435 290.441 235.707 289.737 235.682 288.476L240.335 288.459L240.338 288.007C240.355 285.642 238.947 284.722 237.464 284.728C235.641 284.734 234.429 286.128 234.414 288.139C234.4 290.172 235.575 291.497 237.505 291.49ZM235.693 287.521C235.751 286.592 236.43 285.784 237.465 285.78C238.454 285.777 239.096 286.507 239.093 287.509L235.693 287.521ZM250.55 284.765L249.183 284.77L247.493 289.813L247.425 289.813L245.803 284.782L244.435 284.787L246.766 291.324L248.13 291.319L250.55 284.765ZM251.701 291.306L252.975 291.301L253.022 284.756L251.748 284.761L251.701 291.306ZM252.399 283.748C252.838 283.747 253.206 283.404 253.209 282.987C253.212 282.569 252.848 282.225 252.41 282.227C251.966 282.229 251.602 282.575 251.599 282.993C251.596 283.41 251.955 283.75 252.399 283.748ZM259.629 286.33C259.373 285.312 258.58 284.65 257.166 284.656C255.687 284.661 254.633 285.445 254.625 286.604C254.618 287.533 255.176 288.148 256.401 288.417L257.508 288.655C258.137 288.794 258.429 289.074 258.426 289.483C258.423 289.99 257.879 290.388 257.043 290.391C256.281 290.394 255.793 290.068 255.644 289.425L254.411 289.617C254.616 290.775 255.574 291.424 257.044 291.418C258.625 291.413 259.727 290.569 259.735 289.385C259.742 288.46 259.158 287.891 257.958 287.618L256.92 287.384C256.201 287.216 255.892 286.974 255.899 286.531C255.899 286.028 256.447 285.668 257.171 285.665C257.964 285.662 258.327 286.1 258.473 286.538L259.629 286.33ZM261.122 291.271L262.397 291.267L262.444 284.721L261.17 284.726L261.122 291.271ZM261.82 283.714C262.259 283.712 262.628 283.37 262.631 282.952C262.634 282.535 262.27 282.191 261.831 282.193C261.388 282.194 261.023 282.541 261.02 282.958C261.017 283.376 261.377 283.715 261.82 283.714ZM267.213 284.704L265.871 284.709L265.882 283.141L264.608 283.145L264.597 284.714L263.638 284.717L263.631 285.74L264.589 285.736L264.562 289.601C264.549 290.79 265.452 291.362 266.458 291.337C266.863 291.331 267.136 291.254 267.286 291.198L267.063 290.146C266.978 290.163 266.82 290.202 266.615 290.203C266.202 290.205 265.832 290.07 265.838 289.332L265.864 285.732L267.206 285.727L267.213 284.704ZM271.261 291.366C273.106 291.36 274.322 290.004 274.337 287.98C274.351 285.943 273.155 284.597 271.31 284.604C269.465 284.61 268.249 285.966 268.235 288.003C268.22 290.027 269.416 291.373 271.261 291.366ZM271.273 290.297C270.067 290.301 269.512 289.251 269.521 287.994C269.531 286.741 270.101 285.673 271.307 285.669C272.504 285.665 273.059 286.728 273.05 287.981C273.041 289.238 272.471 290.292 271.273 290.297ZM275.736 291.218L277.01 291.213L277.039 287.216C277.045 286.36 277.71 285.739 278.613 285.736C278.877 285.735 279.175 285.781 279.277 285.81L279.286 284.592C279.158 284.575 278.907 284.563 278.745 284.564C277.978 284.566 277.319 285.004 277.075 285.708L277.007 285.708L277.014 284.668L275.783 284.673L275.736 291.218ZM285.282 286.236C285.025 285.218 284.233 284.556 282.818 284.562C281.339 284.567 280.285 285.351 280.277 286.51C280.27 287.439 280.828 288.054 282.054 288.323L283.16 288.561C283.789 288.7 284.081 288.98 284.078 289.389C284.075 289.896 283.531 290.294 282.695 290.297C281.933 290.3 281.445 289.974 281.296 289.331L280.063 289.523C280.268 290.681 281.226 291.33 282.697 291.324C284.278 291.319 285.379 290.475 285.387 289.29C285.394 288.366 284.81 287.797 283.61 287.524L282.572 287.29C281.853 287.122 281.544 286.88 281.552 286.437C281.551 285.934 282.099 285.574 282.823 285.571C283.616 285.568 283.979 286.006 284.125 286.444L285.282 286.236Z" fill="#1C1C1C"/>
<path d="M294.197 292.912C295.858 292.906 297.086 291.675 297.098 290.004C297.11 288.312 295.943 287.077 294.341 287.083C293.753 287.085 293.18 287.296 292.82 287.582L292.769 287.583L293.095 285.008L296.742 284.994L296.749 284.057L292.215 284.073L291.656 288.371L292.643 288.486C293.007 288.225 293.627 288.035 294.164 288.038C295.276 288.042 296.083 288.883 296.075 290.025C296.067 291.146 295.277 291.971 294.203 291.975C293.308 291.978 292.601 291.405 292.526 290.617L291.503 290.621C291.557 291.95 292.697 292.918 294.197 292.912ZM303.231 291.124C303.225 292.078 303.815 292.877 304.923 292.873C306.014 292.869 306.617 292.066 306.624 291.111L306.627 290.651C306.634 289.696 306.06 288.897 304.952 288.902C303.861 288.906 303.242 289.709 303.235 290.663L303.231 291.124ZM298.921 286.145C298.914 287.1 299.505 287.899 300.613 287.895C301.704 287.891 302.306 287.087 302.313 286.133L302.316 285.673C302.323 284.718 301.749 283.919 300.642 283.923C299.551 283.927 298.931 284.731 298.924 285.685L298.921 286.145ZM299.197 292.775L300.169 292.771L306.232 284.022L305.26 284.026L299.197 292.775ZM304.104 290.66C304.108 290.132 304.35 289.637 304.947 289.634C305.56 289.632 305.761 290.126 305.758 290.654L305.754 291.114C305.75 291.643 305.525 292.138 304.929 292.14C304.315 292.142 304.097 291.649 304.101 291.12L304.104 290.66ZM299.794 285.682C299.797 285.154 300.04 284.658 300.636 284.656C301.25 284.654 301.451 285.148 301.447 285.676L301.444 286.136C301.44 286.665 301.215 287.16 300.618 287.162C300.004 287.164 299.786 286.671 299.79 286.142L299.794 285.682Z" fill="#AEB6CA"/>
<rect opacity="0.5" width="6.76249" height="6.89113" rx="3.38125" transform="matrix(0.999993 -0.00366517 -0.00721786 0.999974 21.4458 309.249)" fill="#3167EB"/>
<path d="M33.3379 317.265L34.6547 317.26L34.6768 314.192L36.4666 314.186C38.4907 314.178 39.5009 312.952 39.5126 311.341C39.5242 309.734 38.5401 308.519 36.5117 308.527L33.4009 308.538L33.3379 317.265ZM34.6849 313.076L34.7095 309.663L36.3629 309.657C37.6669 309.652 38.1944 310.357 38.1873 311.346C38.1801 312.334 37.6422 313.065 36.3553 313.07L34.6849 313.076ZM45.0772 314.508C45.0735 315.62 44.2429 316.151 43.527 316.154C42.7387 316.157 42.1974 315.588 42.2038 314.697L42.2327 310.688L40.9586 310.692L40.9286 314.855C40.9168 316.479 41.8014 317.319 43.0585 317.315C44.0428 317.311 44.7156 316.789 45.0232 316.089L45.0914 316.089L45.0832 317.222L46.336 317.218L46.3833 310.672L45.1049 310.677L45.0772 314.508ZM48.048 317.211L49.3222 317.207L49.351 313.21C49.3572 312.353 50.0222 311.733 50.9256 311.729C51.1898 311.729 51.4877 311.774 51.5898 311.804L51.5986 310.585C51.4709 310.568 51.2195 310.557 51.0576 310.557C50.2906 310.56 49.6312 310.997 49.3875 311.701L49.3193 311.701L49.3268 310.662L48.0953 310.666L48.048 317.211ZM55.1752 317.317C56.7221 317.312 57.7302 316.379 57.88 315.104L56.64 315.109C56.4729 315.817 55.9202 316.237 55.1915 316.239C54.1134 316.243 53.4253 315.347 53.4356 313.919C53.4457 312.517 54.1595 311.632 55.2248 311.628C56.0345 311.626 56.5251 312.135 56.657 312.748L57.8971 312.744C57.7702 311.423 56.6985 310.549 55.2113 310.555C53.3661 310.562 52.1629 311.955 52.1485 313.954C52.1342 315.927 53.2747 317.324 55.1752 317.317ZM60.5298 313.279C60.5374 312.235 61.2022 311.636 62.1098 311.633C62.9877 311.63 63.5078 312.186 63.5009 313.145L63.4719 317.155L64.7461 317.15L64.7761 312.987C64.7879 311.355 63.899 310.523 62.5525 310.528C61.534 310.532 60.9172 310.977 60.6053 311.685L60.5243 311.686L60.5477 308.439L59.2906 308.443L59.2276 317.17L60.5018 317.166L60.5298 313.279ZM68.3501 317.282C69.4325 317.278 70.0458 316.726 70.2923 316.235L70.3434 316.235L70.3369 317.13L71.5812 317.125L71.6126 312.779C71.6264 310.874 70.1291 310.5 69.0894 310.504C67.9047 310.508 66.8104 310.989 66.3756 312.184L67.5711 312.453C67.7619 311.987 68.2424 311.538 69.099 311.535C69.9214 311.532 70.3402 311.961 70.3348 312.702L70.3346 312.732C70.3312 313.197 69.854 313.19 68.6769 313.331C67.4358 313.48 66.1636 313.808 66.1529 315.296C66.1436 316.583 67.1058 317.286 68.3501 317.282ZM68.6345 316.258C67.9143 316.261 67.3968 315.939 67.4013 315.308C67.4062 314.626 68.0131 314.381 68.751 314.28C69.1648 314.224 70.1457 314.109 70.3302 313.925L70.3241 314.769C70.3186 315.545 69.6956 316.254 68.6345 316.258ZM78.2188 312.154C77.962 311.136 77.1699 310.474 75.7551 310.479C74.2765 310.485 73.2225 311.269 73.2142 312.428C73.2075 313.357 73.7655 313.972 74.9908 314.241L76.097 314.479C76.7267 314.618 77.0187 314.898 77.0157 315.307C77.0121 315.814 76.468 316.212 75.6328 316.215C74.87 316.218 74.3823 315.892 74.2336 315.249L73.0007 315.441C73.2054 316.599 74.1637 317.248 75.6339 317.242C77.2148 317.237 78.3161 316.393 78.3246 315.208C78.3313 314.284 77.7473 313.715 76.5477 313.442L75.5096 313.207C74.7907 313.04 74.4813 312.798 74.4888 312.355C74.4882 311.852 75.0362 311.492 75.7606 311.489C76.5532 311.486 76.9166 311.924 77.0625 312.362L78.2188 312.154ZM82.5319 317.217C83.9595 317.212 84.9745 316.505 85.2719 315.439L84.0676 315.226C83.833 315.844 83.2767 316.162 82.5523 316.164C81.4614 316.168 80.7336 315.464 80.7086 314.203L85.362 314.186L85.3652 313.734C85.3823 311.369 83.9742 310.449 82.4912 310.455C80.6674 310.461 79.4557 311.855 79.4412 313.866C79.4265 315.899 80.6015 317.224 82.5319 317.217ZM80.7197 313.248C80.7776 312.319 81.4567 311.511 82.4922 311.507C83.4808 311.504 84.1232 312.234 84.1203 313.236L80.7197 313.248ZM89.2041 317.188C90.3973 317.184 90.8713 316.454 91.1044 316.035L91.211 316.035L91.2036 317.053L92.4479 317.049L92.5109 308.322L91.2368 308.326L91.2134 311.569L91.1367 311.569C90.9095 311.165 90.4802 310.425 89.2614 310.43C87.6805 310.436 86.5081 311.689 86.4928 313.811C86.4775 315.928 87.6147 317.194 89.2041 317.188ZM89.4932 316.101C88.3555 316.105 87.7704 315.106 87.7798 313.793C87.7892 312.493 88.3758 311.516 89.5264 311.511C90.6386 311.507 91.2286 312.413 91.2187 313.781C91.2088 315.157 90.5927 316.097 89.4932 316.101ZM103.089 310.464L101.721 310.469L100.031 315.512L99.963 315.513L98.3417 310.482L96.9738 310.487L99.3044 317.023L100.668 317.018L103.089 310.464ZM104.239 317.005L105.513 317.001L105.56 310.455L104.286 310.46L104.239 317.005ZM104.937 309.448C105.376 309.446 105.745 309.104 105.748 308.686C105.751 308.269 105.387 307.925 104.948 307.927C104.505 307.928 104.14 308.275 104.137 308.692C104.134 309.11 104.494 309.449 104.937 309.448ZM112.168 312.029C111.911 311.012 111.119 310.35 109.704 310.355C108.225 310.36 107.172 311.144 107.163 312.303C107.156 313.232 107.714 313.848 108.94 314.116L110.046 314.355C110.676 314.493 110.968 314.773 110.965 315.183C110.961 315.69 110.417 316.088 109.582 316.091C108.819 316.094 108.331 315.767 108.183 315.125L106.95 315.317C107.154 316.475 108.113 317.123 109.583 317.118C111.164 317.112 112.265 316.269 112.274 315.084C112.28 314.159 111.696 313.59 110.497 313.318L109.459 313.083C108.74 312.915 108.43 312.673 108.438 312.23C108.437 311.727 108.985 311.368 109.71 311.365C110.502 311.362 110.866 311.8 111.012 312.238L112.168 312.029ZM113.661 316.971L114.935 316.966L114.982 310.421L113.708 310.426L113.661 316.971ZM114.359 309.413C114.798 309.412 115.167 309.069 115.17 308.652C115.173 308.234 114.809 307.89 114.37 307.892C113.927 307.894 113.562 308.24 113.559 308.658C113.556 309.075 113.916 309.415 114.359 309.413ZM119.752 310.403L118.409 310.408L118.421 308.84L117.147 308.845L117.135 310.413L116.176 310.417L116.169 311.439L117.128 311.436L117.1 315.301C117.087 316.49 117.991 317.062 118.997 317.037C119.401 317.031 119.675 316.953 119.824 316.897L119.602 315.845C119.516 315.863 119.358 315.902 119.154 315.902C118.74 315.904 118.371 315.769 118.376 315.032L118.402 311.431L119.744 311.426L119.752 310.403ZM123.8 317.066C125.645 317.059 126.861 315.704 126.875 313.68C126.89 311.643 125.694 310.296 123.849 310.303C122.003 310.31 120.788 311.665 120.773 313.702C120.758 315.726 121.955 317.073 123.8 317.066ZM123.812 315.996C122.606 316.001 122.051 314.95 122.06 313.693C122.069 312.44 122.639 311.373 123.845 311.368C125.043 311.364 125.597 312.427 125.588 313.68C125.579 314.937 125.009 315.992 123.812 315.996ZM128.274 316.917L129.548 316.913L129.577 312.916C129.583 312.059 130.248 311.439 131.152 311.435C131.416 311.434 131.714 311.48 131.816 311.51L131.825 310.291C131.697 310.274 131.446 310.263 131.284 310.263C130.517 310.266 129.857 310.703 129.613 311.407L129.545 311.407L129.553 310.367L128.321 310.372L128.274 316.917ZM137.82 311.935C137.563 310.918 136.771 310.256 135.356 310.261C133.878 310.266 132.824 311.05 132.815 312.209C132.809 313.138 133.367 313.754 134.592 314.022L135.698 314.261C136.328 314.399 136.62 314.679 136.617 315.089C136.613 315.596 136.069 315.994 135.234 315.997C134.471 316 133.983 315.673 133.835 315.031L132.602 315.223C132.807 316.381 133.765 317.029 135.235 317.024C136.816 317.018 137.917 316.175 137.926 314.99C137.932 314.065 137.349 313.496 136.149 313.224L135.111 312.989C134.392 312.821 134.083 312.579 134.09 312.136C134.089 311.633 134.637 311.274 135.362 311.271C136.154 311.268 136.518 311.706 136.664 312.144L137.82 311.935Z" fill="#1C1C1C"/>
<path d="M147.317 317.704C149.008 317.697 150.273 316.632 150.283 315.204C150.291 314.096 149.641 313.293 148.543 313.114L148.543 313.046C149.427 312.774 149.982 312.048 149.989 311.063C149.998 309.828 149.03 308.732 147.415 308.738C145.907 308.743 144.647 309.677 144.586 311.049L145.609 311.045C145.654 310.176 146.484 309.662 147.392 309.658C148.355 309.655 148.973 310.236 148.966 311.118C148.96 312.039 148.235 312.638 147.2 312.642L146.501 312.644L146.494 313.582L147.193 313.579C148.518 313.574 149.251 314.245 149.244 315.208C149.237 316.133 148.427 316.762 147.306 316.766C146.296 316.77 145.499 316.253 145.441 315.409L144.367 315.413C144.421 316.785 145.625 317.71 147.317 317.704ZM154.855 317.676C156.781 317.669 157.901 316.033 157.921 313.182C157.942 310.352 156.829 308.703 154.92 308.71C153.01 308.717 151.874 310.375 151.853 313.204C151.833 316.055 152.929 317.683 154.855 317.676ZM154.862 316.738C153.592 316.743 152.859 315.472 152.876 313.2C152.892 310.933 153.652 309.635 154.913 309.631C156.174 309.626 156.915 310.919 156.899 313.186C156.882 315.457 156.131 316.734 154.862 316.738ZM163.97 315.887C163.963 316.841 164.554 317.64 165.662 317.636C166.752 317.632 167.355 316.829 167.362 315.874L167.365 315.414C167.372 314.46 166.798 313.661 165.69 313.665C164.599 313.669 163.98 314.472 163.973 315.427L163.97 315.887ZM159.659 310.909C159.652 311.863 160.243 312.662 161.351 312.658C162.442 312.654 163.044 311.851 163.051 310.896L163.055 310.436C163.061 309.481 162.488 308.682 161.38 308.687C160.289 308.691 159.669 309.494 159.663 310.448L159.659 310.909ZM159.935 317.538L160.907 317.534L166.97 308.785L165.998 308.789L159.935 317.538ZM164.842 315.423C164.846 314.895 165.088 314.4 165.685 314.398C166.299 314.395 166.5 314.889 166.496 315.417L166.492 315.878C166.489 316.406 166.263 316.901 165.667 316.903C165.053 316.906 164.835 316.412 164.839 315.884L164.842 315.423ZM160.532 310.445C160.536 309.917 160.778 309.422 161.374 309.419C161.988 309.417 162.189 309.911 162.185 310.439L162.182 310.899C162.178 311.428 161.953 311.923 161.356 311.925C160.743 311.927 160.525 311.434 160.529 310.905L160.532 310.445Z" fill="#AEB6CA"/>
<rect opacity="0.5" width="6.76249" height="6.89113" rx="3.38125" transform="matrix(0.999993 -0.00366517 -0.00721786 0.999974 185.441 309.995)" fill="#CCF0D1"/>
<path d="M197.334 317.505L200.68 317.493C202.708 317.486 203.632 316.473 203.641 315.134C203.651 313.784 202.71 313.024 201.846 312.981L201.846 312.895C202.649 312.688 203.322 312.14 203.33 311.049C203.339 309.758 202.451 308.76 200.593 308.767L197.397 308.778L197.334 317.505ZM198.659 316.371L198.68 313.576L200.627 313.569C201.684 313.565 202.339 314.244 202.333 315.075C202.328 315.808 201.826 316.36 200.56 316.364L198.659 316.371ZM198.687 312.549L198.706 309.894L200.504 309.888C201.548 309.884 202.043 310.432 202.038 311.156C202.032 312 201.338 312.539 200.451 312.543L198.687 312.549ZM205.871 319.929C206.924 319.925 207.593 319.373 207.979 318.34L210.739 310.924L209.362 310.916L207.668 316.002L207.6 316.002L205.979 310.929L204.615 310.934L206.962 317.555L206.802 317.991C206.471 318.861 206.015 318.935 205.317 318.746L205.003 319.791C205.156 319.859 205.488 319.93 205.871 319.929ZM216.972 317.578C218.054 317.574 218.668 317.022 218.914 316.532L218.965 316.531L218.959 317.426L220.203 317.422L220.234 313.075C220.248 311.17 218.751 310.797 217.711 310.8C216.526 310.805 215.432 311.286 214.997 312.481L216.193 312.749C216.384 312.284 216.864 311.835 217.721 311.832C218.543 311.829 218.962 312.257 218.956 312.999L218.956 313.029C218.953 313.493 218.476 313.486 217.299 313.627C216.058 313.777 214.785 314.105 214.775 315.592C214.765 316.879 215.727 317.583 216.972 317.578ZM217.256 316.555C216.536 316.557 216.018 316.235 216.023 315.605C216.028 314.923 216.635 314.678 217.373 314.577C217.786 314.52 218.767 314.406 218.952 314.222L218.946 315.066C218.94 315.841 218.317 316.551 217.256 316.555ZM224.349 317.534C225.543 317.53 226.017 316.8 226.25 316.381L226.356 316.381L226.349 317.399L227.593 317.395L227.656 308.668L226.382 308.672L226.359 311.915L226.282 311.915C226.055 311.511 225.625 310.771 224.407 310.776C222.826 310.782 221.653 312.035 221.638 314.157C221.623 316.274 222.76 317.54 224.349 317.534ZM224.638 316.447C223.501 316.451 222.916 315.452 222.925 314.139C222.934 312.839 223.521 311.861 224.672 311.857C225.784 311.853 226.374 312.759 226.364 314.127C226.354 315.503 225.738 316.443 224.638 316.447ZM235.058 310.822L233.69 310.827L232.001 315.87L231.932 315.87L230.311 310.839L228.943 310.845L231.274 317.381L232.638 317.376L235.058 310.822ZM238.794 317.486C240.222 317.48 241.237 316.774 241.534 315.707L240.33 315.494C240.095 316.113 239.539 316.43 238.815 316.433C237.724 316.437 236.996 315.732 236.971 314.471L241.624 314.454L241.627 314.002C241.645 311.637 240.236 310.718 238.754 310.723C236.93 310.73 235.718 312.124 235.703 314.135C235.689 316.168 236.864 317.493 238.794 317.486ZM236.982 313.517C237.04 312.587 237.719 311.78 238.754 311.776C239.743 311.772 240.385 312.503 240.383 313.504L236.982 313.517ZM243.017 317.338L244.291 317.333L244.32 313.336C244.326 312.48 244.991 311.86 245.895 311.856C246.159 311.855 246.457 311.901 246.559 311.93L246.568 310.712C246.44 310.695 246.189 310.683 246.027 310.684C245.26 310.687 244.6 311.124 244.357 311.828L244.288 311.828L244.296 310.788L243.064 310.793L243.017 317.338ZM251.112 310.763L249.77 310.768L249.781 309.2L248.507 309.205L248.495 310.773L247.537 310.776L247.529 311.799L248.488 311.796L248.46 315.661C248.447 316.849 249.351 317.421 250.357 317.396C250.761 317.391 251.035 317.313 251.184 317.257L250.962 316.205C250.876 316.223 250.718 316.262 250.514 316.262C250.101 316.264 249.731 316.129 249.736 315.392L249.762 311.791L251.104 311.786L251.112 310.763ZM252.474 317.303L253.748 317.299L253.795 310.753L252.521 310.758L252.474 317.303ZM253.172 309.746C253.611 309.744 253.98 309.402 253.983 308.984C253.986 308.567 253.622 308.223 253.183 308.225C252.74 308.226 252.375 308.573 252.372 308.99C252.369 309.408 252.729 309.747 253.172 309.746ZM260.403 312.327C260.146 311.31 259.354 310.648 257.939 310.653C256.46 310.658 255.407 311.442 255.398 312.601C255.391 313.53 255.949 314.146 257.175 314.414L258.281 314.653C258.911 314.791 259.203 315.071 259.2 315.481C259.196 315.988 258.652 316.386 257.817 316.389C257.054 316.392 256.566 316.065 256.418 315.423L255.185 315.615C255.389 316.773 256.348 317.421 257.818 317.416C259.399 317.41 260.5 316.567 260.509 315.382C260.515 314.457 259.931 313.888 258.732 313.616L257.694 313.381C256.975 313.213 256.665 312.971 256.673 312.528C256.672 312.025 257.22 311.666 257.945 311.663C258.737 311.66 259.101 312.098 259.246 312.536L260.403 312.327ZM264.716 317.391C266.143 317.385 267.158 316.679 267.456 315.612L266.252 315.399C266.017 316.018 265.461 316.335 264.736 316.338C263.645 316.342 262.918 315.637 262.893 314.376L267.546 314.359L267.549 313.907C267.566 311.542 266.158 310.623 264.675 310.628C262.851 310.635 261.64 312.029 261.625 314.04C261.61 316.073 262.785 317.398 264.716 317.391ZM262.904 313.422C262.962 312.492 263.641 311.685 264.676 311.681C265.665 311.677 266.307 312.408 266.304 313.409L262.904 313.422ZM268.939 317.243L270.213 317.238L270.242 313.203C270.248 312.321 270.871 311.705 271.595 311.702C272.303 311.7 272.789 312.167 272.784 312.878L272.753 317.229L274.023 317.224L274.053 313.053C274.058 312.264 274.544 311.692 275.375 311.688C276.048 311.686 276.599 312.059 276.593 312.945L276.562 317.215L277.836 317.21L277.868 312.821C277.879 311.326 277.049 310.583 275.864 310.587C274.923 310.591 274.212 311.045 273.892 311.745L273.823 311.745C273.543 311.03 272.945 310.598 272.072 310.601C271.207 310.604 270.56 311.037 270.282 311.758L270.201 311.759L270.209 310.693L268.986 310.698L268.939 317.243ZM282.364 317.326C283.792 317.321 284.807 316.614 285.104 315.548L283.9 315.335C283.665 315.953 283.109 316.271 282.385 316.273C281.294 316.277 280.566 315.573 280.541 314.311L285.194 314.294L285.197 313.843C285.215 311.478 283.806 310.558 282.324 310.564C280.5 310.57 279.288 311.964 279.273 313.975C279.259 316.008 280.434 317.333 282.364 317.326ZM280.552 313.357C280.61 312.428 281.289 311.62 282.324 311.616C283.313 311.613 283.956 312.343 283.953 313.344L280.552 313.357ZM287.889 313.287C287.897 312.243 288.54 311.644 289.427 311.641C290.292 311.638 290.812 312.203 290.805 313.153L290.776 317.163L292.05 317.158L292.08 312.995C292.092 311.376 291.207 310.531 289.869 310.536C288.885 310.54 288.238 310.998 287.931 311.694L287.85 311.694L287.857 310.629L286.634 310.633L286.587 317.178L287.861 317.174L287.889 313.287ZM296.862 310.596L295.519 310.6L295.531 309.032L294.256 309.037L294.245 310.605L293.286 310.609L293.279 311.631L294.238 311.628L294.21 315.493C294.197 316.682 295.1 317.254 296.106 317.229C296.511 317.223 296.784 317.145 296.934 317.089L296.711 316.038C296.626 316.055 296.468 316.094 296.264 316.095C295.85 316.096 295.481 315.961 295.486 315.224L295.512 311.623L296.854 311.618L296.862 310.596Z" fill="#1C1C1C"/>
<path d="M305.484 309.019L304.427 309.023L302.235 310.48L302.227 311.554L304.368 310.131L304.419 310.131L304.364 317.75L305.421 317.746L305.484 309.019ZM310.657 317.846C312.319 317.84 313.547 316.609 313.559 314.938C313.571 313.247 312.404 312.011 310.802 312.017C310.214 312.019 309.641 312.23 309.281 312.517L309.23 312.517L309.555 309.942L313.203 309.928L313.21 308.991L308.676 309.008L308.116 313.305L309.104 313.421C309.468 313.159 310.088 312.97 310.624 312.972C311.737 312.976 312.544 313.817 312.536 314.959C312.528 316.08 311.738 316.905 310.664 316.909C309.769 316.912 309.062 316.34 308.987 315.552L307.964 315.555C308.018 316.885 309.157 317.852 310.657 317.846ZM319.692 316.058C319.685 317.012 320.276 317.811 321.384 317.807C322.475 317.803 323.078 317 323.084 316.045L323.088 315.585C323.095 314.631 322.521 313.832 321.413 313.836C320.322 313.84 319.703 314.643 319.696 315.598L319.692 316.058ZM315.382 311.08C315.375 312.034 315.966 312.833 317.074 312.829C318.165 312.825 318.767 312.022 318.774 311.067L318.777 310.607C318.784 309.652 318.21 308.853 317.102 308.857C316.011 308.861 315.392 309.665 315.385 310.619L315.382 311.08ZM315.658 317.709L316.629 317.705L322.692 308.956L321.721 308.96L315.658 317.709ZM320.565 315.594C320.569 315.066 320.811 314.571 321.408 314.569C322.021 314.566 322.222 315.06 322.218 315.588L322.215 316.049C322.211 316.577 321.986 317.072 321.39 317.074C320.776 317.076 320.558 316.583 320.562 316.055L320.565 315.594ZM316.255 310.616C316.258 310.088 316.501 309.593 317.097 309.59C317.711 309.588 317.912 310.082 317.908 310.61L317.905 311.07C317.901 311.599 317.676 312.094 317.079 312.096C316.465 312.098 316.247 311.605 316.251 311.076L316.255 310.616Z" fill="#AEB6CA"/>
<path d="M131.327 194.214L132.418 194.21L134.394 187.248L134.462 187.248L136.338 194.195L137.429 194.191L139.878 185.456L138.805 185.46L136.929 192.574L136.844 192.574L135.038 185.473L133.844 185.478L131.935 192.592L131.85 192.593L130.077 185.492L129.004 185.496L131.327 194.214ZM143.13 194.307C144.459 194.302 145.436 193.634 145.75 192.644L144.78 192.375C144.519 193.058 143.925 193.401 143.136 193.404C141.956 193.408 141.148 192.648 141.111 191.246L145.862 191.229L145.865 190.803C145.883 188.365 144.44 187.535 143.076 187.54C141.304 187.547 140.117 188.949 140.103 190.96C140.088 192.972 141.238 194.314 143.13 194.307ZM141.117 190.377C141.193 189.358 141.919 188.448 143.07 188.444C144.161 188.44 144.854 189.255 144.846 190.363L141.117 190.377ZM147.507 194.155L148.479 194.151L148.486 193.145L148.605 193.145C148.824 193.502 149.245 194.285 150.506 194.28C152.143 194.274 153.294 192.957 153.309 190.878C153.324 188.815 152.191 187.507 150.538 187.513C149.26 187.518 148.862 188.303 148.638 188.645L148.553 188.645L148.576 185.424L147.57 185.427L147.507 194.155ZM148.519 190.878C148.53 189.412 149.185 188.421 150.412 188.417C151.691 188.412 152.313 189.484 152.304 190.864C152.293 192.262 151.638 193.372 150.376 193.377C149.166 193.381 148.509 192.361 148.519 190.878ZM159.497 189.031C159.188 188.104 158.485 187.484 157.19 187.489C155.809 187.494 154.781 188.282 154.773 189.39C154.766 190.293 155.299 190.896 156.499 191.173L157.588 191.425C158.247 191.576 158.556 191.89 158.553 192.341C158.549 192.904 157.949 193.366 157.011 193.37C156.189 193.373 155.676 193.021 155.502 192.319L154.545 192.561C154.772 193.672 155.684 194.261 157.022 194.256C158.543 194.25 159.585 193.416 159.593 192.286C159.599 191.375 159.032 190.801 157.867 190.52L156.897 190.285C156.123 190.096 155.775 189.838 155.779 189.335C155.783 188.772 156.383 188.361 157.184 188.358C158.061 188.355 158.42 188.839 158.592 189.29L159.497 189.031ZM161.093 194.105L162.099 194.101L162.146 187.556L161.141 187.559L161.093 194.105ZM161.66 186.467C162.052 186.465 162.378 186.157 162.381 185.782C162.383 185.407 162.062 185.102 161.67 185.103C161.278 185.105 160.952 185.413 160.949 185.788C160.946 186.163 161.268 186.468 161.66 186.467ZM166.835 187.539L165.437 187.544L165.448 185.976L164.443 185.979L164.431 187.547L163.443 187.551L163.437 188.403L164.425 188.4L164.396 192.49C164.388 193.632 165.304 194.175 166.156 194.171C166.531 194.17 166.77 194.101 166.907 194.049L166.709 193.147C166.624 193.164 166.487 193.199 166.266 193.199C165.822 193.201 165.397 193.066 165.403 192.214L165.431 188.396L166.829 188.391L166.835 187.539ZM170.973 194.205C172.303 194.2 173.279 193.532 173.593 192.542L172.624 192.273C172.363 192.956 171.768 193.299 170.98 193.301C169.8 193.306 168.991 192.546 168.954 191.144L173.706 191.127L173.709 190.701C173.726 188.263 172.284 187.433 170.92 187.438C169.147 187.445 167.961 188.847 167.946 190.858C167.932 192.87 169.081 194.212 170.973 194.205ZM168.961 190.275C169.036 189.256 169.763 188.346 170.913 188.342C172.004 188.338 172.697 189.153 172.689 190.261L168.961 190.275ZM181.213 196.622C182.781 196.616 184.047 195.896 184.06 194.208L184.108 187.475L183.137 187.479L183.129 188.519L183.027 188.519C182.808 188.179 182.404 187.396 181.126 187.401C179.472 187.407 178.321 188.724 178.306 190.735C178.292 192.78 179.476 193.935 181.062 193.929C182.34 193.925 182.755 193.173 182.979 192.814L183.064 192.814L183.054 194.144C183.047 195.234 182.276 195.732 181.219 195.735C180.03 195.74 179.617 195.115 179.351 194.754L178.546 195.319C178.95 196.004 179.751 196.627 181.213 196.622ZM181.205 193.025C179.943 193.03 179.302 192.078 179.312 190.714C179.322 189.385 179.96 188.309 181.239 188.304C182.466 188.299 183.106 189.286 183.096 190.7C183.086 192.149 182.415 193.021 181.205 193.025ZM185.902 194.014L186.907 194.01L186.937 189.868C186.944 188.982 187.647 188.332 188.602 188.328C188.87 188.327 189.147 188.377 189.215 188.394L189.222 187.371C189.107 187.363 188.843 187.356 188.694 187.356C187.91 187.359 187.225 187.805 186.982 188.453L186.914 188.454L186.921 187.465L185.949 187.469L185.902 194.014ZM192.825 194.125C194.598 194.118 195.801 192.767 195.816 190.739C195.831 188.694 194.647 187.351 192.874 187.358C191.102 187.364 189.899 188.715 189.884 190.761C189.869 192.789 191.053 194.131 192.825 194.125ZM192.832 193.221C191.485 193.226 190.88 192.07 190.89 190.757C190.899 189.445 191.521 188.266 192.868 188.261C194.214 188.256 194.82 189.43 194.81 190.743C194.801 192.055 194.179 193.216 192.832 193.221ZM198.588 193.967L199.576 193.964L201.045 188.93L201.147 188.93L202.542 193.953L203.531 193.949L205.573 187.397L204.516 187.4L203.065 192.4L202.997 192.4L201.652 187.411L200.578 187.415L199.144 192.431L199.076 192.432L197.698 187.425L196.641 187.429L198.588 193.967ZM209.749 187.381L208.351 187.386L208.362 185.818L207.357 185.822L207.345 187.39L206.357 187.394L206.35 188.246L207.339 188.242L207.31 192.333C207.301 193.475 208.218 194.017 209.07 194.014C209.445 194.013 209.684 193.944 209.821 193.892L209.623 192.989C209.538 193.007 209.401 193.041 209.179 193.042C208.736 193.044 208.311 192.909 208.317 192.057L208.345 188.239L209.742 188.234L209.749 187.381ZM212.389 189.979C212.397 188.837 213.13 188.187 214.123 188.183C215.069 188.18 215.636 188.774 215.629 189.814L215.599 193.905L216.605 193.901L216.635 189.742C216.647 188.059 215.758 187.274 214.42 187.279C213.388 187.283 212.797 187.715 212.486 188.394L212.4 188.394L212.423 185.19L211.418 185.193L211.355 193.921L212.36 193.917L212.389 189.979Z" fill="#AEB6CA"/>
<path d="M154.027 164.208C151.662 164.201 150.079 165.831 150.064 167.962C150.054 170.018 151.509 171.499 153.421 171.492C154.598 171.488 155.625 170.914 156.159 169.974L156.234 169.974C156.211 172.307 155.354 173.701 153.847 173.706C152.904 173.71 152.274 173.169 152.083 172.301L150.139 172.308C150.35 174.113 151.768 175.423 153.835 175.416C156.45 175.406 158.133 173.216 158.155 169.461C158.178 165.487 156.121 164.211 154.027 164.208ZM154.021 165.806C155.188 165.802 156.038 166.768 156.03 167.882C156.027 169.011 155.12 169.984 153.97 169.988C152.808 169.992 151.979 169.079 151.982 167.912C151.99 166.741 152.865 165.811 154.021 165.806ZM159.893 175.245L161.944 175.237L166.645 166L166.657 164.311L159.226 164.338L159.214 165.99L164.6 165.97L164.599 166.045L159.893 175.245ZM167.531 175.334C168.159 175.331 168.701 174.807 168.711 174.158C168.71 173.518 168.176 172.998 167.548 173.001C166.898 173.003 166.367 173.527 166.367 174.166C166.357 174.816 166.881 175.336 167.531 175.334ZM173.741 164.285L171.861 164.292L169.137 166.044L169.124 167.855L171.687 166.216L171.751 166.215L171.686 175.201L173.663 175.194L173.741 164.285ZM176.15 173.161L181.354 173.142L181.339 175.166L183.225 175.159L183.24 173.135L184.635 173.13L184.647 171.505L183.251 171.51L183.304 164.25L180.843 164.259L176.161 171.59L176.15 173.161ZM181.387 171.517L178.186 171.529L178.186 171.444L181.338 166.495L181.423 166.494L181.387 171.517ZM192.07 173.081C192.066 174.349 192.863 175.427 194.36 175.422C195.851 175.416 196.679 174.332 196.683 173.064L196.687 172.489C196.702 171.211 195.91 170.143 194.398 170.149C192.922 170.154 192.089 171.238 192.074 172.506L192.07 173.081ZM186.57 166.859C186.566 168.127 187.363 169.194 188.865 169.189C190.351 169.183 191.179 168.12 191.183 166.842L191.187 166.267C191.202 164.988 190.41 163.921 188.903 163.926C187.433 163.931 186.589 165.005 186.574 166.284L186.57 166.859ZM186.99 175.145L188.327 175.14L195.905 164.204L194.568 164.209L186.99 175.145ZM193.464 172.501C193.474 171.936 193.718 171.365 194.389 171.363C195.092 171.36 195.296 171.93 195.286 172.494L195.282 173.069C195.283 173.634 195.05 174.194 194.368 174.197C193.687 174.199 193.462 173.635 193.46 173.076L193.464 172.501ZM187.975 166.278C187.984 165.719 188.218 165.143 188.894 165.141C189.597 165.138 189.796 165.707 189.786 166.272L189.782 166.847C189.783 167.412 189.556 167.972 188.874 167.974C188.192 167.977 187.972 167.418 187.971 166.854L187.975 166.278Z" fill="#1C1C1C"/>
<path d="M257.121 177.006C256.994 194.622 251.293 211.807 240.835 226.097L234.122 221.218C243.534 208.357 248.665 192.891 248.779 177.036L257.121 177.006Z" fill="#CDD2FD"/>
<path opacity="0.2" d="M240.835 226.097C230.378 240.387 215.7 251.048 198.906 256.554C182.112 262.059 164.064 262.125 147.349 256.742L149.984 248.799C165.028 253.644 181.271 253.584 196.386 248.629C211.5 243.675 224.71 234.079 234.122 221.218L240.835 226.097Z" fill="#00B517"/>
<path d="M147.349 256.742C130.634 251.36 116.109 240.806 105.857 226.591C95.6053 212.377 90.1521 195.234 90.2792 177.617C90.4064 160.001 96.1074 142.816 106.565 128.526C117.023 114.236 131.701 103.575 148.494 98.0693L151.015 105.994C135.901 110.948 122.691 120.544 113.279 133.405C103.867 146.266 98.7358 161.732 98.6213 177.587C98.5069 193.441 103.415 208.871 112.642 221.663C121.868 234.456 134.94 243.955 149.984 248.799L147.349 256.742Z" fill="#3167EB"/>
<path d="M148.494 98.0693C161.044 93.9554 174.357 92.8595 187.345 94.8712C200.333 96.8829 212.626 101.945 223.221 109.644C233.816 117.343 242.41 127.46 248.302 139.167C254.194 150.875 257.216 163.841 257.121 177.006L248.779 177.036C248.865 165.188 246.145 153.519 240.842 142.982C235.539 132.445 227.804 123.34 218.269 116.411C208.734 109.482 197.669 104.926 185.98 103.115C174.291 101.305 162.31 102.291 151.015 105.994L148.494 98.0693Z" fill="#96C0FF"/>
<path d="M288.948 72.0503L294.085 66.8916L289.079 61.7144" stroke="#AEB6CA" stroke-linecap="round" stroke-linejoin="round"/>
<line y1="-0.25" x2="25.8419" y2="-0.25" transform="matrix(-0.0127104 0.999919 -0.999998 -0.00182765 271.72 53.9302)" stroke="#E4E4E4" stroke-opacity="0.6" stroke-width="0.5"/>
<path d="M59.8687 71.6318L54.8625 66.4546L60.0001 61.2959" stroke="#AEB6CA" stroke-linecap="round" stroke-linejoin="round"/>
<line y1="-0.25" x2="25.8419" y2="-0.25" transform="matrix(-0.0127104 0.999919 -0.999998 -0.00182765 77.8496 53.5757)" stroke="#E4E4E4" stroke-opacity="0.6" stroke-width="0.5"/>
<path d="M115.559 72.9353L117.931 72.9396L117.992 68.146L120.408 68.1504L122.917 72.9487L125.563 72.9535L122.797 67.7585C124.346 67.1413 125.174 65.8261 125.197 64.0493C125.228 61.5502 123.639 59.8599 120.635 59.8544L115.726 59.8454L115.559 72.9353ZM118.017 66.1774L118.072 61.8311L120.245 61.8351C122.016 61.8383 122.798 62.6515 122.78 64.0449C122.763 65.4382 121.961 66.1846 120.203 66.1814L118.017 66.1774ZM131.268 73.1557C133.556 73.1599 135.143 72.0443 135.573 70.3385L133.416 70.0916C133.092 70.922 132.32 71.3552 131.323 71.3534C129.827 71.3506 128.849 70.3645 128.851 68.6835L135.69 68.696L135.699 67.9866C135.743 64.5415 133.691 63.023 131.275 63.0185C128.463 63.0134 126.602 65.0745 126.563 68.1041C126.524 71.1848 128.308 73.1503 131.268 73.1557ZM128.877 67.124C128.963 65.8714 129.903 64.8185 131.284 64.821C132.614 64.8234 133.496 65.7966 133.492 67.1324L128.877 67.124ZM141.774 73.1749C144.241 73.1794 145.832 71.7186 146.025 69.6353L143.813 69.6313C143.601 70.6855 142.833 71.2913 141.817 71.2895C140.372 71.2868 139.454 70.0771 139.48 68.0702C139.505 66.0888 140.473 64.9017 141.898 64.9043C143.01 64.9064 143.685 65.6235 143.852 66.5697L146.064 66.5738C145.931 64.4451 144.287 63.0423 141.89 63.0379C139.013 63.0327 137.172 65.1066 137.133 68.1042C137.096 71.0763 138.84 73.1696 141.774 73.1749ZM152.126 73.1938C154.415 73.198 156.001 72.0824 156.432 70.3766L154.275 70.1298C153.951 70.9601 153.178 71.3933 152.181 71.3915C150.685 71.3888 149.707 70.4027 149.709 68.7216L156.549 68.7341L156.558 68.0247C156.602 64.5797 154.55 63.0611 152.134 63.0567C149.321 63.0515 147.46 65.1126 147.422 68.1422C147.383 71.2229 149.167 73.1884 152.126 73.1938ZM149.735 67.1621C149.822 65.9095 150.762 64.8566 152.143 64.8591C153.472 64.8616 154.355 65.8347 154.351 67.1706L149.735 67.1621ZM160.739 67.2653C160.757 65.8464 161.624 65.0299 162.845 65.0321C164.04 65.0343 164.746 65.8217 164.729 67.132L164.654 73.025L166.968 73.0292L167.048 66.7783C167.084 64.4262 165.759 63.0816 163.733 63.0779C162.262 63.0752 161.244 63.7764 160.782 64.8685L160.667 64.8683L160.688 63.2001L158.477 63.1961L158.352 73.0135L160.666 73.0177L160.739 67.2653ZM174.248 63.2249L172.311 63.2214L172.341 60.8693L170.027 60.8651L169.997 63.2171L168.604 63.2146L168.581 65.0042L169.975 65.0068L169.905 70.4651C169.869 72.3123 171.2 73.2223 172.939 73.1744C173.598 73.1564 174.053 73.0294 174.304 72.9468L173.937 71.1372C173.808 71.169 173.546 71.226 173.258 71.2255C172.676 71.2244 172.212 71.019 172.224 70.0859L172.289 65.011L174.225 65.0145L174.248 63.2249ZM180.323 73.0536L182.637 73.0579L182.713 67.0882C182.729 65.8802 183.544 65.0635 184.542 65.0654C185.519 65.0671 186.182 65.7267 186.169 66.7366L186.089 73.0642L188.358 73.0683L188.436 66.9452C188.45 65.8395 189.118 65.0737 190.237 65.0758C191.17 65.0775 191.905 65.6285 191.889 66.8429L191.81 73.0746L194.13 73.0789L194.214 66.4892C194.242 64.2969 192.991 63.1313 191.188 63.128C189.763 63.1254 188.667 63.8265 188.219 64.9187L188.117 64.9185C187.754 63.8057 186.81 63.12 185.487 63.1176C184.17 63.1152 183.177 63.7909 182.754 64.9087L182.639 64.9085L182.66 63.2403L180.448 63.2362L180.323 73.0536ZM200.658 73.2825C203.534 73.2878 205.388 71.265 205.427 68.2291C205.465 65.1867 203.663 63.1508 200.787 63.1456C197.91 63.1403 196.056 65.1695 196.018 68.2119C195.979 71.2478 197.781 73.2773 200.658 73.2825ZM200.694 71.429C199.103 71.4261 198.341 70.0058 198.364 68.2098C198.386 66.4137 199.185 64.9771 200.776 64.98C202.342 64.9828 203.104 66.4224 203.081 68.2184C203.058 70.0144 202.26 71.4319 200.694 71.429ZM209.616 67.3547C209.634 65.9357 210.501 65.1192 211.722 65.1214C212.917 65.1236 213.623 65.9111 213.606 67.2213L213.531 73.1143L215.845 73.1186L215.925 66.8676C215.961 64.5156 214.636 63.1709 212.609 63.1672C211.139 63.1645 210.12 63.8657 209.659 64.9579L209.544 64.9576L209.565 63.2895L207.354 63.2854L207.229 73.1028L209.543 73.107L209.616 67.3547ZM223.125 63.3142L221.188 63.3107L221.218 60.9586L218.904 60.9544L218.874 63.3065L217.481 63.3039L217.458 65.0936L218.852 65.0961L218.782 70.5545C218.746 72.4016 220.077 73.3116 221.816 73.2637C222.475 73.2457 222.93 73.1187 223.18 73.0361L222.814 71.2266C222.685 71.2583 222.422 71.3153 222.135 71.3148C221.553 71.3137 221.089 71.1084 221.101 70.1752L221.166 65.1003L223.102 65.1039L223.125 63.3142ZM227.433 67.3872C227.451 65.9683 228.344 65.1518 229.584 65.1541C230.798 65.1563 231.505 65.931 231.488 67.254L231.413 73.147L233.727 73.1512L233.806 66.9003C233.836 64.5291 232.511 63.2036 230.472 63.1998C228.963 63.1971 227.996 63.8792 227.528 64.9905L227.413 64.9903L227.476 60.0497L225.213 60.0455L225.046 73.1354L227.36 73.1396L227.433 67.3872Z" fill="#1C1C1C"/>
<path d="M25.6419 23.1829L23.474 23.179L27.2946 34.0951L29.7342 34.0995L33.6 23.1975L31.4267 23.1935L28.5772 31.775L28.4654 31.7748L25.6419 23.1829ZM34.8317 34.1088L36.76 34.1124L36.7749 25.9306L34.8467 25.927L34.8317 34.1088ZM35.8183 24.7676C36.4308 24.7687 36.9324 24.3009 36.9334 23.7256C36.9345 23.145 36.4346 22.6753 35.8221 22.6742C35.2042 22.6731 34.7026 23.1409 34.7016 23.7215C34.7005 24.2968 35.2004 24.7665 35.8183 24.7676ZM45.1205 28.1085C44.8567 26.723 43.7503 25.8368 41.8327 25.8333C39.8618 25.8297 38.5177 26.7967 38.5203 28.3095C38.5128 29.5026 39.2464 30.2923 40.8172 30.6201L42.2123 30.9156C42.963 31.0821 43.314 31.3864 43.3132 31.8498C43.3122 32.4091 42.7042 32.8288 41.788 32.8272C40.9037 32.8255 40.3291 32.441 40.1654 31.7056L38.2847 31.8833C38.5217 33.3858 39.7825 34.2777 41.7906 34.2814C43.8361 34.2851 45.2816 33.2277 45.2897 31.6777C45.2865 30.5111 44.5368 29.796 42.9926 29.4576L41.5976 29.1567C40.767 28.9688 40.4372 28.6805 40.4434 28.2064C40.4391 27.6525 41.0524 27.2701 41.8567 27.2715C42.7463 27.2732 43.2141 27.7587 43.3623 28.297L45.1205 28.1085ZM46.7753 34.1307L48.7035 34.1342L48.7185 25.9524L46.7902 25.9489L46.7753 34.1307ZM47.7618 24.7894C48.3744 24.7905 48.8759 24.3227 48.877 23.7474C48.878 23.1668 48.3782 22.6971 47.7656 22.696C47.1477 22.6949 46.6462 23.1627 46.6451 23.7433C46.644 24.3186 47.1439 24.7883 47.7618 24.7894ZM54.6869 25.9633L53.0729 25.9603L53.0765 24.0001L51.1482 23.9966L51.1447 25.9568L49.9834 25.9547L49.9807 27.4462L51.1419 27.4483L51.1336 31.9973C51.1201 33.5367 52.2374 34.2951 53.6863 34.2552C54.235 34.2402 54.6134 34.1343 54.8212 34.0655L54.4991 32.5574C54.3925 32.5839 54.174 32.6314 53.9343 32.631C53.4496 32.6301 53.061 32.4589 53.0625 31.6812L53.0702 27.4518L54.6842 27.4548L54.6869 25.9633ZM59.6653 34.314C62.0623 34.3184 63.5888 32.6326 63.5935 30.1025C63.5981 27.5669 62.0778 25.8703 59.6808 25.8659C57.2837 25.8615 55.7572 27.5526 55.7526 30.0881C55.748 32.6183 57.2683 34.3096 59.6653 34.314ZM59.6788 32.7693C58.3524 32.7669 57.7047 31.5832 57.7075 30.0864C57.7102 28.5896 58.3623 27.3922 59.6886 27.3947C60.9937 27.3971 61.6413 28.5968 61.6386 30.0936C61.6359 31.5904 60.9838 32.7717 59.6788 32.7693ZM65.1227 34.1642L67.0509 34.1677L67.0597 29.3577C67.0616 28.319 67.846 27.5854 68.906 27.5873C69.2309 27.5879 69.6357 27.6472 69.8007 27.7008L69.8039 25.927C69.6282 25.8947 69.3246 25.8729 69.1116 25.8725C68.1741 25.8708 67.3901 26.402 67.09 27.3496L67.0048 27.3494L67.0073 25.9858L65.1376 25.9824L65.1227 34.1642ZM77.4475 28.1675C77.1837 26.7821 76.0774 25.8959 74.1598 25.8924C72.1889 25.8888 70.8448 26.8558 70.8474 28.3685C70.8399 29.5617 71.5735 30.3514 73.1443 30.6792L74.5394 30.9747C75.2901 31.1412 75.6411 31.4455 75.6403 31.9089C75.6393 32.4682 75.0312 32.8879 74.1151 32.8862C73.2308 32.8846 72.6562 32.5001 72.4925 31.7647L70.6118 31.9423C70.8488 33.4449 72.1096 34.3368 74.1177 34.3404C76.1632 34.3442 77.6086 33.2868 77.6168 31.7367C77.6136 30.5702 76.8639 29.855 75.3197 29.5166L73.9247 29.2158C73.094 29.0278 72.7643 28.7396 72.7705 28.2655C72.7662 27.7115 73.3795 27.3291 74.1838 27.3306C75.0734 27.3322 75.5412 27.8178 75.6894 28.3561L77.4475 28.1675Z" fill="#1C1C1C"/>
</svg>
