<svg width="36" height="36" viewBox="0 0 36 36" fill="none" xmlns="http://www.w3.org/2000/svg">
<path fill-rule="evenodd" clip-rule="evenodd" d="M18 3C9.72 3 3 9.72 3 18C3 26.28 9.72 33 18 33C26.28 33 33 26.28 33 18C33 9.72 26.28 3 18 3ZM20.115 27.135V30H16.11V27.105C13.545 26.565 11.37 24.915 11.205 22.005H14.145C14.295 23.58 15.375 24.81 18.12 24.81C21.06 24.81 21.72 23.34 21.72 22.425C21.72 21.18 21.06 20.01 17.715 19.215C13.995 18.315 11.445 16.785 11.445 13.71C11.445 11.13 13.53 9.45 16.11 8.895V6H20.115V8.925C22.905 9.6 24.3 11.715 24.39 14.01H21.45C21.375 12.345 20.49 11.205 18.12 11.205C15.87 11.205 14.52 12.225 14.52 13.665C14.52 14.925 15.495 15.75 18.525 16.53C21.555 17.31 24.795 18.615 24.795 22.395C24.78 25.14 22.725 26.64 20.115 27.135Z" fill="#FF9017"/>
</svg>
